<svg width="352" height="142" viewBox="0 0 352 142" fill="none" xmlns="http://www.w3.org/2000/svg">
<rect width="352" height="142" rx="20" fill="#9BBBC6"/>
<path d="M18.86 27.48C18.86 26.36 19.0867 25.38 19.54 24.54C19.9933 23.6867 20.6133 23.0267 21.4 22.56C22.2 22.0933 23.0867 21.86 24.06 21.86C25.02 21.86 25.8533 22.0667 26.56 22.48C27.2667 22.8933 27.7933 23.4133 28.14 24.04V22.04H29.98V33H28.14V30.96C27.78 31.6 27.24 32.1333 26.52 32.56C25.8133 32.9733 24.9867 33.18 24.04 33.18C23.0667 33.18 22.1867 32.94 21.4 32.46C20.6133 31.98 19.9933 31.3067 19.54 30.44C19.0867 29.5733 18.86 28.5867 18.86 27.48ZM28.14 27.5C28.14 26.6733 27.9733 25.9533 27.64 25.34C27.3067 24.7267 26.8533 24.26 26.28 23.94C25.72 23.6067 25.1 23.44 24.42 23.44C23.74 23.44 23.12 23.6 22.56 23.92C22 24.24 21.5533 24.7067 21.22 25.32C20.8867 25.9333 20.72 26.6533 20.72 27.48C20.72 28.32 20.8867 29.0533 21.22 29.68C21.5533 30.2933 22 30.7667 22.56 31.1C23.12 31.42 23.74 31.58 24.42 31.58C25.1 31.58 25.72 31.42 26.28 31.1C26.8533 30.7667 27.3067 30.2933 27.64 29.68C27.9733 29.0533 28.14 28.3267 28.14 27.5ZM49.2677 22.76V24.3H38.8677V22.76H49.2677ZM49.2677 27.06V28.6H38.8677V27.06H49.2677ZM57.6528 31.54C59.3461 30.18 60.6728 29.0667 61.6328 28.2C62.5928 27.32 63.3995 26.4067 64.0528 25.46C64.7195 24.5 65.0528 23.56 65.0528 22.64C65.0528 21.7733 64.8395 21.0933 64.4128 20.6C63.9995 20.0933 63.3261 19.84 62.3928 19.84C61.4861 19.84 60.7795 20.1267 60.2728 20.7C59.7795 21.26 59.5128 22.0133 59.4728 22.96H57.7128C57.7661 21.4667 58.2195 20.3133 59.0728 19.5C59.9261 18.6867 61.0261 18.28 62.3728 18.28C63.7461 18.28 64.8328 18.66 65.6328 19.42C66.4461 20.18 66.8528 21.2267 66.8528 22.56C66.8528 23.6667 66.5195 24.7467 65.8528 25.8C65.1995 26.84 64.4528 27.76 63.6128 28.56C62.7728 29.3467 61.6995 30.2667 60.3928 31.32H67.2728V32.84H57.6528V31.54ZM68.8967 20.2V18.54H72.6567V33H70.8167V20.2H68.8967Z" fill="white"/>
<path d="M24.86 79.48C24.86 78.36 25.0867 77.38 25.54 76.54C25.9933 75.6867 26.6133 75.0267 27.4 74.56C28.2 74.0933 29.0933 73.86 30.08 73.86C30.9333 73.86 31.7267 74.06 32.46 74.46C33.1933 74.8467 33.7533 75.36 34.14 76V70.2H35.98V85H34.14V82.94C33.78 83.5933 33.2467 84.1333 32.54 84.56C31.8333 84.9733 31.0067 85.18 30.06 85.18C29.0867 85.18 28.2 84.94 27.4 84.46C26.6133 83.98 25.9933 83.3067 25.54 82.44C25.0867 81.5733 24.86 80.5867 24.86 79.48ZM34.14 79.5C34.14 78.6733 33.9733 77.9533 33.64 77.34C33.3067 76.7267 32.8533 76.26 32.28 75.94C31.72 75.6067 31.1 75.44 30.42 75.44C29.74 75.44 29.12 75.6 28.56 75.92C28 76.24 27.5533 76.7067 27.22 77.32C26.8867 77.9333 26.72 78.6533 26.72 79.48C26.72 80.32 26.8867 81.0533 27.22 81.68C27.5533 82.2933 28 82.7667 28.56 83.1C29.12 83.42 29.74 83.58 30.42 83.58C31.1 83.58 31.72 83.42 32.28 83.1C32.8533 82.7667 33.3067 82.2933 33.64 81.68C33.9733 81.0533 34.14 80.3267 34.14 79.5ZM55.2677 74.76V76.3H44.8677V74.76H55.2677ZM55.2677 79.06V80.6H44.8677V79.06H55.2677ZM65.1528 75.6H63.1128L65.0328 71.06H66.3328L65.1528 75.6ZM68.3928 75.6H66.3528L68.2728 71.06H69.5728L68.3928 75.6ZM82.5105 71.06V85H80.6905V78.68H73.5905V85H71.7705V71.06H73.5905V77.18H80.6905V71.06H82.5105ZM95.6181 79.1C95.6181 79.4467 95.5981 79.8133 95.5581 80.2H86.7981C86.8648 81.28 87.2315 82.1267 87.8981 82.74C88.5781 83.34 89.3981 83.64 90.3581 83.64C91.1448 83.64 91.7981 83.46 92.3181 83.1C92.8515 82.7267 93.2248 82.2333 93.4381 81.62H95.3981C95.1048 82.6733 94.5181 83.5333 93.6381 84.2C92.7581 84.8533 91.6648 85.18 90.3581 85.18C89.3181 85.18 88.3848 84.9467 87.5581 84.48C86.7448 84.0133 86.1048 83.3533 85.6381 82.5C85.1715 81.6333 84.9381 80.6333 84.9381 79.5C84.9381 78.3667 85.1648 77.3733 85.6181 76.52C86.0715 75.6667 86.7048 75.0133 87.5181 74.56C88.3448 74.0933 89.2915 73.86 90.3581 73.86C91.3981 73.86 92.3181 74.0867 93.1181 74.54C93.9181 74.9933 94.5315 75.62 94.9581 76.42C95.3981 77.2067 95.6181 78.1 95.6181 79.1ZM93.7381 78.72C93.7381 78.0267 93.5848 77.4333 93.2781 76.94C92.9715 76.4333 92.5515 76.0533 92.0181 75.8C91.4981 75.5333 90.9181 75.4 90.2781 75.4C89.3581 75.4 88.5715 75.6933 87.9181 76.28C87.2781 76.8667 86.9115 77.68 86.8181 78.72H93.7381ZM99.8405 70.2V85H98.0205V70.2H99.8405ZM104.762 70.2V85H102.942V70.2H104.762ZM112.644 85.18C111.618 85.18 110.684 84.9467 109.844 84.48C109.018 84.0133 108.364 83.3533 107.884 82.5C107.418 81.6333 107.184 80.6333 107.184 79.5C107.184 78.38 107.424 77.3933 107.904 76.54C108.398 75.6733 109.064 75.0133 109.904 74.56C110.744 74.0933 111.684 73.86 112.724 73.86C113.764 73.86 114.704 74.0933 115.544 74.56C116.384 75.0133 117.044 75.6667 117.524 76.52C118.018 77.3733 118.264 78.3667 118.264 79.5C118.264 80.6333 118.011 81.6333 117.504 82.5C117.011 83.3533 116.338 84.0133 115.484 84.48C114.631 84.9467 113.684 85.18 112.644 85.18ZM112.644 83.58C113.298 83.58 113.911 83.4267 114.484 83.12C115.058 82.8133 115.518 82.3533 115.864 81.74C116.224 81.1267 116.404 80.38 116.404 79.5C116.404 78.62 116.231 77.8733 115.884 77.26C115.538 76.6467 115.084 76.1933 114.524 75.9C113.964 75.5933 113.358 75.44 112.704 75.44C112.038 75.44 111.424 75.5933 110.864 75.9C110.318 76.1933 109.878 76.6467 109.544 77.26C109.211 77.8733 109.044 78.62 109.044 79.5C109.044 80.3933 109.204 81.1467 109.524 81.76C109.858 82.3733 110.298 82.8333 110.844 83.14C111.391 83.4333 111.991 83.58 112.644 83.58ZM140.589 74.04L137.169 85H135.289L132.649 76.3L130.009 85H128.129L124.689 74.04H126.549L129.069 83.24L131.789 74.04H133.649L136.309 83.26L138.789 74.04H140.589ZM147.175 85.18C146.149 85.18 145.215 84.9467 144.375 84.48C143.549 84.0133 142.895 83.3533 142.415 82.5C141.949 81.6333 141.715 80.6333 141.715 79.5C141.715 78.38 141.955 77.3933 142.435 76.54C142.929 75.6733 143.595 75.0133 144.435 74.56C145.275 74.0933 146.215 73.86 147.255 73.86C148.295 73.86 149.235 74.0933 150.075 74.56C150.915 75.0133 151.575 75.6667 152.055 76.52C152.549 77.3733 152.795 78.3667 152.795 79.5C152.795 80.6333 152.542 81.6333 152.035 82.5C151.542 83.3533 150.869 84.0133 150.015 84.48C149.162 84.9467 148.215 85.18 147.175 85.18ZM147.175 83.58C147.829 83.58 148.442 83.4267 149.015 83.12C149.589 82.8133 150.049 82.3533 150.395 81.74C150.755 81.1267 150.935 80.38 150.935 79.5C150.935 78.62 150.762 77.8733 150.415 77.26C150.069 76.6467 149.615 76.1933 149.055 75.9C148.495 75.5933 147.889 75.44 147.235 75.44C146.569 75.44 145.955 75.5933 145.395 75.9C144.849 76.1933 144.409 76.6467 144.075 77.26C143.742 77.8733 143.575 78.62 143.575 79.5C143.575 80.3933 143.735 81.1467 144.055 81.76C144.389 82.3733 144.829 82.8333 145.375 83.14C145.922 83.4333 146.522 83.58 147.175 83.58ZM157.008 75.82C157.328 75.1933 157.782 74.7067 158.368 74.36C158.968 74.0133 159.695 73.84 160.548 73.84V75.72H160.068C158.028 75.72 157.008 76.8267 157.008 79.04V85H155.188V74.04H157.008V75.82ZM164.469 70.2V85H162.649V70.2H164.469ZM166.891 79.48C166.891 78.36 167.118 77.38 167.571 76.54C168.025 75.6867 168.645 75.0267 169.431 74.56C170.231 74.0933 171.125 73.86 172.111 73.86C172.965 73.86 173.758 74.06 174.491 74.46C175.225 74.8467 175.785 75.36 176.171 76V70.2H178.011V85H176.171V82.94C175.811 83.5933 175.278 84.1333 174.571 84.56C173.865 84.9733 173.038 85.18 172.091 85.18C171.118 85.18 170.231 84.94 169.431 84.46C168.645 83.98 168.025 83.3067 167.571 82.44C167.118 81.5733 166.891 80.5867 166.891 79.48ZM176.171 79.5C176.171 78.6733 176.005 77.9533 175.671 77.34C175.338 76.7267 174.885 76.26 174.311 75.94C173.751 75.6067 173.131 75.44 172.451 75.44C171.771 75.44 171.151 75.6 170.591 75.92C170.031 76.24 169.585 76.7067 169.251 77.32C168.918 77.9333 168.751 78.6533 168.751 79.48C168.751 80.32 168.918 81.0533 169.251 81.68C169.585 82.2933 170.031 82.7667 170.591 83.1C171.151 83.42 171.771 83.58 172.451 83.58C173.131 83.58 173.751 83.42 174.311 83.1C174.885 82.7667 175.338 82.2933 175.671 81.68C176.005 81.0533 176.171 80.3267 176.171 79.5ZM181.367 71.06H183.387L181.467 75.6H180.187L181.367 71.06ZM184.607 71.06H186.627L184.707 75.6H183.407L184.607 71.06Z" fill="white"/>
<path d="M203.54 101.1C203.54 101.447 203.52 101.813 203.48 102.2H194.72C194.787 103.28 195.153 104.127 195.82 104.74C196.5 105.34 197.32 105.64 198.28 105.64C199.067 105.64 199.72 105.46 200.24 105.1C200.773 104.727 201.147 104.233 201.36 103.62H203.32C203.027 104.673 202.44 105.533 201.56 106.2C200.68 106.853 199.587 107.18 198.28 107.18C197.24 107.18 196.307 106.947 195.48 106.48C194.667 106.013 194.027 105.353 193.56 104.5C193.093 103.633 192.86 102.633 192.86 101.5C192.86 100.367 193.087 99.3733 193.54 98.52C193.993 97.6667 194.627 97.0133 195.44 96.56C196.267 96.0933 197.213 95.86 198.28 95.86C199.32 95.86 200.24 96.0867 201.04 96.54C201.84 96.9933 202.453 97.62 202.88 98.42C203.32 99.2067 203.54 100.1 203.54 101.1ZM201.66 100.72C201.66 100.027 201.507 99.4333 201.2 98.94C200.893 98.4333 200.473 98.0533 199.94 97.8C199.42 97.5333 198.84 97.4 198.2 97.4C197.28 97.4 196.493 97.6933 195.84 98.28C195.2 98.8667 194.833 99.68 194.74 100.72H201.66ZM222.154 96.76V98.3H211.754V96.76H222.154ZM222.154 101.06V102.6H211.754V101.06H222.154ZM242.02 107H240.2L232.88 95.9V107H231.06V93.04H232.88L240.2 104.12V93.04H242.02V107ZM249.902 107.18C248.875 107.18 247.942 106.947 247.102 106.48C246.275 106.013 245.622 105.353 245.142 104.5C244.675 103.633 244.442 102.633 244.442 101.5C244.442 100.38 244.682 99.3933 245.162 98.54C245.655 97.6733 246.322 97.0133 247.162 96.56C248.002 96.0933 248.942 95.86 249.982 95.86C251.022 95.86 251.962 96.0933 252.802 96.56C253.642 97.0133 254.302 97.6667 254.782 98.52C255.275 99.3733 255.522 100.367 255.522 101.5C255.522 102.633 255.269 103.633 254.762 104.5C254.269 105.353 253.595 106.013 252.742 106.48C251.889 106.947 250.942 107.18 249.902 107.18ZM249.902 105.58C250.555 105.58 251.169 105.427 251.742 105.12C252.315 104.813 252.775 104.353 253.122 103.74C253.482 103.127 253.662 102.38 253.662 101.5C253.662 100.62 253.489 99.8733 253.142 99.26C252.795 98.6467 252.342 98.1933 251.782 97.9C251.222 97.5933 250.615 97.44 249.962 97.44C249.295 97.44 248.682 97.5933 248.122 97.9C247.575 98.1933 247.135 98.6467 246.802 99.26C246.469 99.8733 246.302 100.62 246.302 101.5C246.302 102.393 246.462 103.147 246.782 103.76C247.115 104.373 247.555 104.833 248.102 105.14C248.649 105.433 249.249 105.58 249.902 105.58ZM263.255 95.84C264.588 95.84 265.668 96.2467 266.495 97.06C267.322 97.86 267.735 99.02 267.735 100.54V107H265.935V100.8C265.935 99.7067 265.662 98.8733 265.115 98.3C264.568 97.7133 263.822 97.42 262.875 97.42C261.915 97.42 261.148 97.72 260.575 98.32C260.015 98.92 259.735 99.7933 259.735 100.94V107H257.915V96.04H259.735V97.6C260.095 97.04 260.582 96.6067 261.195 96.3C261.822 95.9933 262.508 95.84 263.255 95.84ZM280.708 101.1C280.708 101.447 280.688 101.813 280.648 102.2H271.888C271.955 103.28 272.321 104.127 272.988 104.74C273.668 105.34 274.488 105.64 275.448 105.64C276.235 105.64 276.888 105.46 277.408 105.1C277.941 104.727 278.315 104.233 278.528 103.62H280.488C280.195 104.673 279.608 105.533 278.728 106.2C277.848 106.853 276.755 107.18 275.448 107.18C274.408 107.18 273.475 106.947 272.648 106.48C271.835 106.013 271.195 105.353 270.728 104.5C270.261 103.633 270.028 102.633 270.028 101.5C270.028 100.367 270.255 99.3733 270.708 98.52C271.161 97.6667 271.795 97.0133 272.608 96.56C273.435 96.0933 274.381 95.86 275.448 95.86C276.488 95.86 277.408 96.0867 278.208 96.54C279.008 96.9933 279.621 97.62 280.048 98.42C280.488 99.2067 280.708 100.1 280.708 101.1ZM278.828 100.72C278.828 100.027 278.675 99.4333 278.368 98.94C278.061 98.4333 277.641 98.0533 277.108 97.8C276.588 97.5333 276.008 97.4 275.368 97.4C274.448 97.4 273.661 97.6933 273.008 98.28C272.368 98.8667 272.001 99.68 271.908 100.72H278.828Z" fill="white"/>
<path d="M258.86 60.5C258.86 59.3667 259.087 58.38 259.54 57.54C259.993 56.6867 260.62 56.0267 261.42 55.56C262.233 55.0933 263.16 54.86 264.2 54.86C265.547 54.86 266.653 55.1867 267.52 55.84C268.4 56.4933 268.98 57.4 269.26 58.56H267.3C267.113 57.8933 266.747 57.3667 266.2 56.98C265.667 56.5933 265 56.4 264.2 56.4C263.16 56.4 262.32 56.76 261.68 57.48C261.04 58.1867 260.72 59.1933 260.72 60.5C260.72 61.82 261.04 62.84 261.68 63.56C262.32 64.28 263.16 64.64 264.2 64.64C265 64.64 265.667 64.4533 266.2 64.08C266.733 63.7067 267.1 63.1733 267.3 62.48H269.26C268.967 63.6 268.38 64.5 267.5 65.18C266.62 65.8467 265.52 66.18 264.2 66.18C263.16 66.18 262.233 65.9467 261.42 65.48C260.62 65.0133 259.993 64.3533 259.54 63.5C259.087 62.6467 258.86 61.6467 258.86 60.5ZM287.9 55.76V57.3H277.5V55.76H287.9ZM287.9 60.06V61.6H277.5V60.06H287.9ZM305.386 52.06V53.54H301.586V66H299.766V53.54H295.946V52.06H305.386ZM309.446 56.82C309.766 56.1933 310.219 55.7067 310.806 55.36C311.406 55.0133 312.133 54.84 312.986 54.84V56.72H312.506C310.466 56.72 309.446 57.8267 309.446 60.04V66H307.626V55.04H309.446V56.82ZM324.807 55.04V66H322.987V64.38C322.64 64.94 322.154 65.38 321.527 65.7C320.914 66.0067 320.234 66.16 319.487 66.16C318.634 66.16 317.867 65.9867 317.187 65.64C316.507 65.28 315.967 64.7467 315.567 64.04C315.18 63.3333 314.987 62.4733 314.987 61.46V55.04H316.787V61.22C316.787 62.3 317.06 63.1333 317.607 63.72C318.154 64.2933 318.9 64.58 319.847 64.58C320.82 64.58 321.587 64.28 322.147 63.68C322.707 63.08 322.987 62.2067 322.987 61.06V55.04H324.807ZM337.88 60.1C337.88 60.4467 337.86 60.8133 337.82 61.2H329.06C329.127 62.28 329.493 63.1267 330.16 63.74C330.84 64.34 331.66 64.64 332.62 64.64C333.407 64.64 334.06 64.46 334.58 64.1C335.113 63.7267 335.487 63.2333 335.7 62.62H337.66C337.367 63.6733 336.78 64.5333 335.9 65.2C335.02 65.8533 333.927 66.18 332.62 66.18C331.58 66.18 330.647 65.9467 329.82 65.48C329.007 65.0133 328.367 64.3533 327.9 63.5C327.433 62.6333 327.2 61.6333 327.2 60.5C327.2 59.3667 327.427 58.3733 327.88 57.52C328.333 56.6667 328.967 56.0133 329.78 55.56C330.607 55.0933 331.553 54.86 332.62 54.86C333.66 54.86 334.58 55.0867 335.38 55.54C336.18 55.9933 336.793 56.62 337.22 57.42C337.66 58.2067 337.88 59.1 337.88 60.1ZM336 59.72C336 59.0267 335.847 58.4333 335.54 57.94C335.233 57.4333 334.813 57.0533 334.28 56.8C333.76 56.5333 333.18 56.4 332.54 56.4C331.62 56.4 330.833 56.6933 330.18 57.28C329.54 57.8667 329.173 58.68 329.08 59.72H336Z" fill="white"/>
<path d="M126.36 39.08C126.733 38.4267 127.28 37.8933 128 37.48C128.72 37.0667 129.54 36.86 130.46 36.86C131.447 36.86 132.333 37.0933 133.12 37.56C133.907 38.0267 134.527 38.6867 134.98 39.54C135.433 40.38 135.66 41.36 135.66 42.48C135.66 43.5867 135.433 44.5733 134.98 45.44C134.527 46.3067 133.9 46.98 133.1 47.46C132.313 47.94 131.433 48.18 130.46 48.18C129.513 48.18 128.68 47.9733 127.96 47.56C127.253 47.1467 126.72 46.62 126.36 45.98V48H124.54V33.2H126.36V39.08ZM133.8 42.48C133.8 41.6533 133.633 40.9333 133.3 40.32C132.967 39.7067 132.513 39.24 131.94 38.92C131.38 38.6 130.76 38.44 130.08 38.44C129.413 38.44 128.793 38.6067 128.22 38.94C127.66 39.26 127.207 39.7333 126.86 40.36C126.527 40.9733 126.36 41.6867 126.36 42.5C126.36 43.3267 126.527 44.0533 126.86 44.68C127.207 45.2933 127.66 45.7667 128.22 46.1C128.793 46.42 129.413 46.58 130.08 46.58C130.76 46.58 131.38 46.42 131.94 46.1C132.513 45.7667 132.967 45.2933 133.3 44.68C133.633 44.0533 133.8 43.32 133.8 42.48ZM154.268 37.76V39.3H143.868V37.76H154.268ZM154.268 42.06V43.6H143.868V42.06H154.268ZM162.393 35.2V33.54H166.153V48H164.313V35.2H162.393ZM168.839 44.78V43.4L175.859 33.68H178.039V43.2H180.039V44.78H178.039V48H176.239V44.78H168.839ZM176.319 35.58L170.939 43.2H176.319V35.58ZM182.737 48.12C182.391 48.12 182.097 48 181.857 47.76C181.617 47.52 181.497 47.2267 181.497 46.88C181.497 46.5333 181.617 46.24 181.857 46C182.097 45.76 182.391 45.64 182.737 45.64C183.071 45.64 183.351 45.76 183.577 46C183.817 46.24 183.937 46.5333 183.937 46.88C183.937 47.2267 183.817 47.52 183.577 47.76C183.351 48 183.071 48.12 182.737 48.12ZM194.956 34.96L189.396 48H187.556L193.196 35.14H185.476V33.58H194.956V34.96ZM206.194 35.12H199.174V39.68C199.481 39.2533 199.934 38.9067 200.534 38.64C201.134 38.36 201.781 38.22 202.474 38.22C203.581 38.22 204.481 38.4533 205.174 38.92C205.868 39.3733 206.361 39.9667 206.654 40.7C206.961 41.42 207.114 42.1867 207.114 43C207.114 43.96 206.934 44.82 206.574 45.58C206.214 46.34 205.661 46.94 204.914 47.38C204.181 47.82 203.268 48.04 202.174 48.04C200.774 48.04 199.641 47.68 198.774 46.96C197.908 46.24 197.381 45.28 197.194 44.08H198.974C199.148 44.84 199.514 45.4333 200.074 45.86C200.634 46.2867 201.341 46.5 202.194 46.5C203.248 46.5 204.041 46.1867 204.574 45.56C205.108 44.92 205.374 44.08 205.374 43.04C205.374 42 205.108 41.2 204.574 40.64C204.041 40.0667 203.254 39.78 202.214 39.78C201.508 39.78 200.888 39.9533 200.354 40.3C199.834 40.6333 199.454 41.0933 199.214 41.68H197.494V33.52H206.194V35.12ZM212.173 40.48C211.426 40.1867 210.853 39.76 210.453 39.2C210.053 38.64 209.853 37.96 209.853 37.16C209.853 36.44 210.033 35.7933 210.393 35.22C210.753 34.6333 211.286 34.1733 211.993 33.84C212.713 33.4933 213.58 33.32 214.593 33.32C215.606 33.32 216.466 33.4933 217.173 33.84C217.893 34.1733 218.433 34.6333 218.793 35.22C219.166 35.7933 219.353 36.44 219.353 37.16C219.353 37.9333 219.146 38.6133 218.733 39.2C218.32 39.7733 217.753 40.2 217.033 40.48C217.86 40.7333 218.513 41.18 218.993 41.82C219.486 42.4467 219.733 43.2067 219.733 44.1C219.733 44.9667 219.52 45.7267 219.093 46.38C218.666 47.02 218.06 47.52 217.273 47.88C216.5 48.2267 215.606 48.4 214.593 48.4C213.58 48.4 212.686 48.2267 211.913 47.88C211.153 47.52 210.56 47.02 210.133 46.38C209.706 45.7267 209.493 44.9667 209.493 44.1C209.493 43.2067 209.733 42.44 210.213 41.8C210.693 41.16 211.346 40.72 212.173 40.48ZM217.593 37.38C217.593 36.5667 217.326 35.94 216.793 35.5C216.26 35.06 215.526 34.84 214.593 34.84C213.673 34.84 212.946 35.06 212.413 35.5C211.88 35.94 211.613 36.5733 211.613 37.4C211.613 38.1467 211.886 38.7467 212.433 39.2C212.993 39.6533 213.713 39.88 214.593 39.88C215.486 39.88 216.206 39.6533 216.753 39.2C217.313 38.7333 217.593 38.1267 217.593 37.38ZM214.593 41.28C213.606 41.28 212.8 41.5133 212.173 41.98C211.546 42.4333 211.233 43.12 211.233 44.04C211.233 44.8933 211.533 45.58 212.133 46.1C212.746 46.62 213.566 46.88 214.593 46.88C215.62 46.88 216.433 46.62 217.033 46.1C217.633 45.58 217.933 44.8933 217.933 44.04C217.933 43.1467 217.626 42.4667 217.013 42C216.4 41.52 215.593 41.28 214.593 41.28Z" fill="white"/>
</svg>
