<svg width="352" height="348" viewBox="0 0 352 348" fill="none" xmlns="http://www.w3.org/2000/svg">
<rect width="352" height="348" rx="20" fill="#9BBBC6"/>
<path fill-rule="evenodd" clip-rule="evenodd" d="M86.6054 32.1167C86.6054 37.1517 82.3055 41.2334 77.0012 41.2334C71.697 41.2334 67.3971 37.1517 67.3971 32.1167C67.3971 27.0817 71.697 23 77.0012 23C82.3055 23 86.6054 27.0817 86.6054 32.1167ZM77.9616 77.3116V41.2335H75.9616V77.7004H76.5867L29.9407 121.979L77.1885 166.829L77.9828 200.919L70.2782 200.973L77.1268 208.981H30.901V248.183H125.022V208.981H79.8784L87.0036 200.855L79.983 200.905L79.1583 165.51L124.603 122.372H183.415L184.238 157.691L176.533 157.745L182.926 165.221H137.507V204.423L182.853 204.423V266.834L87.0486 266.834L86.999 260.152L79.5597 266.211L79.1487 248.631L77.1492 248.675L77.5966 267.81L77.1653 268.162L77.6135 268.536L77.9856 284.45L70.2782 284.505L78.2014 293.769C78.1217 293.767 78.0417 293.767 77.9616 293.767C72.6573 293.767 68.3574 297.848 68.3574 302.883C68.3574 307.918 72.6573 312 77.9616 312C83.2658 312 87.5657 307.918 87.5657 302.883C87.5657 298.101 83.6866 294.179 78.7523 293.797L87.0035 284.387L79.9858 284.436L79.6539 270.24L87.1201 276.475L87.0634 268.834L184.404 268.834V268.24H184.853V204.423L231.628 204.423V165.221H186.6L193.258 157.627L186.238 157.677L185.404 121.872L184.568 121.89V120.372H123.325L77.9616 77.3116ZM50.5535 121.156C50.5535 120.34 50.7415 119.608 51.1175 118.96C51.5015 118.312 52.0175 117.808 52.6655 117.448C53.3215 117.08 54.0375 116.896 54.8135 116.896C55.7015 116.896 56.4895 117.116 57.1775 117.556C57.8735 117.988 58.3775 118.604 58.6895 119.404H57.0455C56.8295 118.964 56.5295 118.636 56.1455 118.42C55.7615 118.204 55.3175 118.096 54.8135 118.096C54.2615 118.096 53.7695 118.22 53.3375 118.468C52.9055 118.716 52.5655 119.072 52.3175 119.536C52.0775 120 51.9575 120.54 51.9575 121.156C51.9575 121.772 52.0775 122.312 52.3175 122.776C52.5655 123.24 52.9055 123.6 53.3375 123.856C53.7695 124.104 54.2615 124.228 54.8135 124.228C55.3175 124.228 55.7615 124.12 56.1455 123.904C56.5295 123.688 56.8295 123.36 57.0455 122.92H58.6895C58.3775 123.72 57.8735 124.336 57.1775 124.768C56.4895 125.2 55.7015 125.416 54.8135 125.416C54.0295 125.416 53.3135 125.236 52.6655 124.876C52.0175 124.508 51.5015 124 51.1175 123.352C50.7415 122.704 50.5535 121.972 50.5535 121.156ZM63.1587 125.452C62.5347 125.452 61.9707 125.312 61.4667 125.032C60.9627 124.744 60.5667 124.344 60.2787 123.832C59.9907 123.312 59.8467 122.712 59.8467 122.032C59.8467 121.36 59.9947 120.764 60.2907 120.244C60.5867 119.724 60.9907 119.324 61.5027 119.044C62.0147 118.764 62.5867 118.624 63.2187 118.624C63.8507 118.624 64.4227 118.764 64.9347 119.044C65.4467 119.324 65.8507 119.724 66.1467 120.244C66.4427 120.764 66.5907 121.36 66.5907 122.032C66.5907 122.704 66.4387 123.3 66.1347 123.82C65.8307 124.34 65.4147 124.744 64.8867 125.032C64.3667 125.312 63.7907 125.452 63.1587 125.452ZM63.1587 124.264C63.5107 124.264 63.8387 124.18 64.1427 124.012C64.4547 123.844 64.7067 123.592 64.8987 123.256C65.0907 122.92 65.1867 122.512 65.1867 122.032C65.1867 121.552 65.0947 121.148 64.9107 120.82C64.7267 120.484 64.4827 120.232 64.1787 120.064C63.8747 119.896 63.5467 119.812 63.1947 119.812C62.8427 119.812 62.5147 119.896 62.2107 120.064C61.9147 120.232 61.6787 120.484 61.5027 120.82C61.3267 121.148 61.2387 121.552 61.2387 122.032C61.2387 122.744 61.4187 123.296 61.7787 123.688C62.1467 124.072 62.6067 124.264 63.1587 124.264ZM71.279 118.624C71.799 118.624 72.263 118.732 72.671 118.948C73.087 119.164 73.411 119.484 73.643 119.908C73.875 120.332 73.9911 120.844 73.9911 121.444V125.344H72.635V121.648C72.635 121.056 72.487 120.604 72.191 120.292C71.895 119.972 71.491 119.812 70.979 119.812C70.467 119.812 70.059 119.972 69.755 120.292C69.459 120.604 69.311 121.056 69.311 121.648V125.344H67.943V118.732H69.311V119.488C69.535 119.216 69.819 119.004 70.163 118.852C70.515 118.7 70.887 118.624 71.279 118.624ZM75.28 122.008C75.28 121.344 75.416 120.756 75.688 120.244C75.968 119.732 76.344 119.336 76.816 119.056C77.296 118.768 77.828 118.624 78.412 118.624C78.844 118.624 79.268 118.72 79.684 118.912C80.108 119.096 80.444 119.344 80.692 119.656V116.464H82.072V125.344H80.692V124.348C80.468 124.668 80.156 124.932 79.756 125.14C79.364 125.348 78.912 125.452 78.4 125.452C77.824 125.452 77.296 125.308 76.816 125.02C76.344 124.724 75.968 124.316 75.688 123.796C75.416 123.268 75.28 122.672 75.28 122.008ZM80.692 122.032C80.692 121.576 80.596 121.18 80.404 120.844C80.22 120.508 79.976 120.252 79.672 120.076C79.368 119.9 79.04 119.812 78.688 119.812C78.336 119.812 78.008 119.9 77.704 120.076C77.4 120.244 77.152 120.496 76.96 120.832C76.776 121.16 76.684 121.552 76.684 122.008C76.684 122.464 76.776 122.864 76.96 123.208C77.152 123.552 77.4 123.816 77.704 124C78.016 124.176 78.344 124.264 78.688 124.264C79.04 124.264 79.368 124.176 79.672 124C79.976 123.824 80.22 123.568 80.404 123.232C80.596 122.888 80.692 122.488 80.692 122.032ZM84.5648 117.856C84.3168 117.856 84.1088 117.772 83.9408 117.604C83.7728 117.436 83.6888 117.228 83.6888 116.98C83.6888 116.732 83.7728 116.524 83.9408 116.356C84.1088 116.188 84.3168 116.104 84.5648 116.104C84.8048 116.104 85.0088 116.188 85.1768 116.356C85.3448 116.524 85.4288 116.732 85.4288 116.98C85.4288 117.228 85.3448 117.436 85.1768 117.604C85.0088 117.772 84.8048 117.856 84.5648 117.856ZM85.2368 118.732V125.344H83.8688V118.732H85.2368ZM88.6289 119.848V123.508C88.6289 123.756 88.6849 123.936 88.7969 124.048C88.9169 124.152 89.1169 124.204 89.3969 124.204H90.2369V125.344H89.1569C88.5409 125.344 88.0689 125.2 87.7409 124.912C87.4129 124.624 87.2489 124.156 87.2489 123.508V119.848H86.4689V118.732H87.2489V117.088H88.6289V118.732H90.2369V119.848H88.6289ZM92.1937 117.856C91.9457 117.856 91.7377 117.772 91.5697 117.604C91.4017 117.436 91.3177 117.228 91.3177 116.98C91.3177 116.732 91.4017 116.524 91.5697 116.356C91.7377 116.188 91.9457 116.104 92.1937 116.104C92.4337 116.104 92.6377 116.188 92.8057 116.356C92.9737 116.524 93.0577 116.732 93.0577 116.98C93.0577 117.228 92.9737 117.436 92.8057 117.604C92.6377 117.772 92.4337 117.856 92.1937 117.856ZM92.8657 118.732V125.344H91.4977V118.732H92.8657ZM97.5298 125.452C96.9058 125.452 96.3418 125.312 95.8378 125.032C95.3338 124.744 94.9378 124.344 94.6498 123.832C94.3618 123.312 94.2178 122.712 94.2178 122.032C94.2178 121.36 94.3658 120.764 94.6618 120.244C94.9578 119.724 95.3618 119.324 95.8738 119.044C96.3858 118.764 96.9578 118.624 97.5898 118.624C98.2218 118.624 98.7938 118.764 99.3058 119.044C99.8178 119.324 100.222 119.724 100.518 120.244C100.814 120.764 100.962 121.36 100.962 122.032C100.962 122.704 100.81 123.3 100.506 123.82C100.202 124.34 99.7858 124.744 99.2578 125.032C98.7378 125.312 98.1618 125.452 97.5298 125.452ZM97.5298 124.264C97.8818 124.264 98.2098 124.18 98.5138 124.012C98.8258 123.844 99.0778 123.592 99.2698 123.256C99.4618 122.92 99.5578 122.512 99.5578 122.032C99.5578 121.552 99.4658 121.148 99.2818 120.82C99.0978 120.484 98.8538 120.232 98.5498 120.064C98.2458 119.896 97.9178 119.812 97.5658 119.812C97.2138 119.812 96.8858 119.896 96.5818 120.064C96.2858 120.232 96.0498 120.484 95.8738 120.82C95.6978 121.148 95.6098 121.552 95.6098 122.032C95.6098 122.744 95.7898 123.296 96.1498 123.688C96.5178 124.072 96.9778 124.264 97.5298 124.264ZM105.65 118.624C106.17 118.624 106.634 118.732 107.042 118.948C107.458 119.164 107.782 119.484 108.014 119.908C108.246 120.332 108.362 120.844 108.362 121.444V125.344H107.006V121.648C107.006 121.056 106.858 120.604 106.562 120.292C106.266 119.972 105.862 119.812 105.35 119.812C104.838 119.812 104.43 119.972 104.126 120.292C103.83 120.604 103.682 121.056 103.682 121.648V125.344H102.314V118.732H103.682V119.488C103.906 119.216 104.19 119.004 104.534 118.852C104.886 118.7 105.258 118.624 105.65 118.624ZM166.331 178.686C166.499 178.854 166.707 178.938 166.955 178.938C167.195 178.938 167.399 178.854 167.567 178.686C167.735 178.518 167.819 178.31 167.819 178.062C167.819 177.814 167.735 177.606 167.567 177.438C167.399 177.27 167.195 177.186 166.955 177.186C166.707 177.186 166.499 177.27 166.331 177.438C166.163 177.606 166.079 177.814 166.079 178.062C166.079 178.31 166.163 178.518 166.331 178.686ZM167.627 186.426V179.814H166.259V186.426H167.627ZM170.972 180.93H172.196V179.814H170.972V179.346C170.972 178.962 171.056 178.694 171.224 178.542C171.392 178.382 171.684 178.302 172.1 178.302V177.162C171.236 177.162 170.6 177.338 170.192 177.69C169.792 178.034 169.592 178.586 169.592 179.346V179.814H168.812V180.93H169.592V186.426H170.972V180.93ZM176.477 181.326C176.205 181.838 176.069 182.434 176.069 183.114C176.069 183.794 176.205 184.394 176.477 184.914C176.757 185.426 177.141 185.826 177.629 186.114C178.117 186.394 178.677 186.534 179.309 186.534C180.093 186.534 180.749 186.338 181.277 185.946C181.805 185.546 182.165 185.01 182.357 184.338H180.881C180.625 185.034 180.101 185.382 179.309 185.382C178.749 185.382 178.301 185.182 177.965 184.782C177.637 184.382 177.473 183.826 177.473 183.114C177.473 182.402 177.637 181.85 177.965 181.458C178.301 181.058 178.749 180.858 179.309 180.858C179.709 180.858 180.041 180.95 180.305 181.134C180.569 181.318 180.761 181.574 180.881 181.902H182.357C182.173 181.198 181.817 180.658 181.289 180.282C180.769 179.898 180.109 179.706 179.309 179.706C178.677 179.706 178.117 179.846 177.629 180.126C177.141 180.406 176.757 180.806 176.477 181.326ZM184.896 186.114C185.4 186.394 185.964 186.534 186.588 186.534C187.22 186.534 187.796 186.394 188.316 186.114C188.844 185.826 189.26 185.422 189.564 184.902C189.868 184.382 190.02 183.786 190.02 183.114C190.02 182.442 189.872 181.846 189.576 181.326C189.28 180.806 188.876 180.406 188.364 180.126C187.852 179.846 187.28 179.706 186.648 179.706C186.016 179.706 185.444 179.846 184.932 180.126C184.42 180.406 184.016 180.806 183.72 181.326C183.424 181.846 183.276 182.442 183.276 183.114C183.276 183.794 183.42 184.394 183.708 184.914C183.996 185.426 184.392 185.826 184.896 186.114ZM187.572 185.094C187.268 185.262 186.94 185.346 186.588 185.346C186.036 185.346 185.576 185.154 185.208 184.77C184.848 184.378 184.668 183.826 184.668 183.114C184.668 182.634 184.756 182.23 184.932 181.902C185.108 181.566 185.344 181.314 185.64 181.146C185.944 180.978 186.272 180.894 186.624 180.894C186.976 180.894 187.304 180.978 187.608 181.146C187.912 181.314 188.156 181.566 188.34 181.902C188.524 182.23 188.616 182.634 188.616 183.114C188.616 183.594 188.52 184.002 188.328 184.338C188.136 184.674 187.884 184.926 187.572 185.094ZM191.325 181.326C191.053 181.838 190.917 182.426 190.917 183.09C190.917 183.754 191.053 184.35 191.325 184.878C191.605 185.398 191.981 185.806 192.453 186.102C192.933 186.39 193.461 186.534 194.037 186.534C194.549 186.534 195.001 186.43 195.393 186.222C195.793 186.014 196.105 185.75 196.329 185.43V186.426H197.709V177.546H196.329V180.738C196.081 180.426 195.745 180.178 195.321 179.994C194.905 179.802 194.481 179.706 194.049 179.706C193.465 179.706 192.933 179.85 192.453 180.138C191.981 180.418 191.605 180.814 191.325 181.326ZM196.041 181.926C196.233 182.262 196.329 182.658 196.329 183.114C196.329 183.57 196.233 183.97 196.041 184.314C195.857 184.65 195.613 184.906 195.309 185.082C195.005 185.258 194.677 185.346 194.325 185.346C193.981 185.346 193.653 185.258 193.341 185.082C193.037 184.898 192.789 184.634 192.597 184.29C192.413 183.946 192.321 183.546 192.321 183.09C192.321 182.634 192.413 182.242 192.597 181.914C192.789 181.578 193.037 181.326 193.341 181.158C193.645 180.982 193.973 180.894 194.325 180.894C194.677 180.894 195.005 180.982 195.309 181.158C195.613 181.334 195.857 181.59 196.041 181.926ZM205.518 183.63C205.55 183.43 205.566 183.206 205.566 182.958C205.566 182.318 205.43 181.754 205.158 181.266C204.886 180.77 204.506 180.386 204.018 180.114C203.53 179.842 202.974 179.706 202.35 179.706C201.702 179.706 201.126 179.846 200.622 180.126C200.126 180.406 199.738 180.806 199.458 181.326C199.186 181.838 199.05 182.434 199.05 183.114C199.05 183.794 199.19 184.394 199.47 184.914C199.758 185.426 200.15 185.826 200.646 186.114C201.15 186.394 201.718 186.534 202.35 186.534C203.126 186.534 203.774 186.342 204.294 185.958C204.822 185.566 205.186 185.066 205.386 184.458H203.91C203.606 185.074 203.086 185.382 202.35 185.382C201.838 185.382 201.406 185.222 201.054 184.902C200.702 184.582 200.506 184.158 200.466 183.63H205.518ZM203.598 181.314C203.95 181.618 204.13 182.022 204.138 182.526H200.478C200.542 182.014 200.742 181.61 201.078 181.314C201.414 181.01 201.818 180.858 202.29 180.858C202.81 180.858 203.246 181.01 203.598 181.314ZM54.1884 226.718C54.1884 226.966 54.1724 227.19 54.1404 227.39H49.0884C49.1284 227.918 49.3244 228.342 49.6764 228.662C50.0284 228.982 50.4604 229.142 50.9724 229.142C51.7084 229.142 52.2284 228.834 52.5324 228.218H54.0084C53.8084 228.826 53.4444 229.326 52.9164 229.718C52.3964 230.102 51.7484 230.294 50.9724 230.294C50.3404 230.294 49.7724 230.154 49.2684 229.874C48.7724 229.586 48.3804 229.186 48.0924 228.674C47.8124 228.154 47.6724 227.554 47.6724 226.874C47.6724 226.194 47.8084 225.598 48.0804 225.086C48.3604 224.566 48.7484 224.166 49.2444 223.886C49.7484 223.606 50.3244 223.466 50.9724 223.466C51.5964 223.466 52.1524 223.602 52.6404 223.874C53.1284 224.146 53.5084 224.53 53.7804 225.026C54.0524 225.514 54.1884 226.078 54.1884 226.718ZM52.7604 226.286C52.7524 225.782 52.5724 225.378 52.2204 225.074C51.8684 224.77 51.4324 224.618 50.9124 224.618C50.4404 224.618 50.0364 224.77 49.7004 225.074C49.3644 225.37 49.1644 225.774 49.1004 226.286H52.7604ZM56.9026 221.306V230.186H55.5346V221.306H56.9026ZM61.0987 230.294C60.5787 230.294 60.1107 230.202 59.6947 230.018C59.2867 229.826 58.9627 229.57 58.7227 229.25C58.4827 228.922 58.3547 228.558 58.3387 228.158H59.7547C59.7787 228.438 59.9107 228.674 60.1507 228.866C60.3987 229.05 60.7067 229.142 61.0747 229.142C61.4587 229.142 61.7547 229.07 61.9627 228.926C62.1787 228.774 62.2867 228.582 62.2867 228.35C62.2867 228.102 62.1667 227.918 61.9267 227.798C61.6947 227.678 61.3227 227.546 60.8107 227.402C60.3147 227.266 59.9107 227.134 59.5987 227.006C59.2867 226.878 59.0147 226.682 58.7827 226.418C58.5587 226.154 58.4467 225.806 58.4467 225.374C58.4467 225.022 58.5507 224.702 58.7587 224.414C58.9667 224.118 59.2627 223.886 59.6467 223.718C60.0387 223.55 60.4867 223.466 60.9907 223.466C61.7427 223.466 62.3467 223.658 62.8027 224.042C63.2667 224.418 63.5147 224.934 63.5467 225.59H62.1787C62.1547 225.294 62.0347 225.058 61.8187 224.882C61.6027 224.706 61.3107 224.618 60.9427 224.618C60.5827 224.618 60.3067 224.686 60.1147 224.822C59.9227 224.958 59.8267 225.138 59.8267 225.362C59.8267 225.538 59.8907 225.686 60.0187 225.806C60.1467 225.926 60.3027 226.022 60.4867 226.094C60.6707 226.158 60.9427 226.242 61.3027 226.346C61.7827 226.474 62.1747 226.606 62.4787 226.742C62.7907 226.87 63.0587 227.062 63.2827 227.318C63.5067 227.574 63.6227 227.914 63.6307 228.338C63.6307 228.714 63.5267 229.05 63.3187 229.346C63.1107 229.642 62.8147 229.874 62.4307 230.042C62.0547 230.21 61.6107 230.294 61.0987 230.294ZM71.1688 226.718C71.1688 226.966 71.1528 227.19 71.1208 227.39H66.0688C66.1088 227.918 66.3048 228.342 66.6568 228.662C67.0088 228.982 67.4408 229.142 67.9528 229.142C68.6888 229.142 69.2088 228.834 69.5128 228.218H70.9888C70.7888 228.826 70.4248 229.326 69.8968 229.718C69.3768 230.102 68.7288 230.294 67.9528 230.294C67.3208 230.294 66.7528 230.154 66.2488 229.874C65.7528 229.586 65.3608 229.186 65.0728 228.674C64.7928 228.154 64.6528 227.554 64.6528 226.874C64.6528 226.194 64.7888 225.598 65.0608 225.086C65.3408 224.566 65.7288 224.166 66.2248 223.886C66.7288 223.606 67.3048 223.466 67.9528 223.466C68.5768 223.466 69.1328 223.602 69.6208 223.874C70.1088 224.146 70.4888 224.53 70.7608 225.026C71.0328 225.514 71.1688 226.078 71.1688 226.718ZM69.7408 226.286C69.7328 225.782 69.5528 225.378 69.2008 225.074C68.8488 224.77 68.4128 224.618 67.8928 224.618C67.4208 224.618 67.0168 224.77 66.6808 225.074C66.3448 225.37 66.1448 225.774 66.0808 226.286H69.7408ZM75.1763 226.874C75.1763 226.194 75.3123 225.598 75.5843 225.086C75.8643 224.566 76.2483 224.166 76.7363 223.886C77.2243 223.606 77.7843 223.466 78.4163 223.466C79.2163 223.466 79.8763 223.658 80.3963 224.042C80.9243 224.418 81.2803 224.958 81.4643 225.662H79.9883C79.8683 225.334 79.6763 225.078 79.4123 224.894C79.1483 224.71 78.8163 224.618 78.4163 224.618C77.8563 224.618 77.4083 224.818 77.0723 225.218C76.7443 225.61 76.5803 226.162 76.5803 226.874C76.5803 227.586 76.7443 228.142 77.0723 228.542C77.4083 228.942 77.8563 229.142 78.4163 229.142C79.2083 229.142 79.7323 228.794 79.9883 228.098H81.4643C81.2723 228.77 80.9123 229.306 80.3843 229.706C79.8563 230.098 79.2003 230.294 78.4163 230.294C77.7843 230.294 77.2243 230.154 76.7363 229.874C76.2483 229.586 75.8643 229.186 75.5843 228.674C75.3123 228.154 75.1763 227.554 75.1763 226.874ZM85.6956 230.294C85.0716 230.294 84.5076 230.154 84.0036 229.874C83.4996 229.586 83.1036 229.186 82.8156 228.674C82.5276 228.154 82.3836 227.554 82.3836 226.874C82.3836 226.202 82.5316 225.606 82.8276 225.086C83.1236 224.566 83.5276 224.166 84.0396 223.886C84.5516 223.606 85.1236 223.466 85.7556 223.466C86.3876 223.466 86.9596 223.606 87.4716 223.886C87.9836 224.166 88.3876 224.566 88.6836 225.086C88.9796 225.606 89.1276 226.202 89.1276 226.874C89.1276 227.546 88.9756 228.142 88.6716 228.662C88.3676 229.182 87.9516 229.586 87.4236 229.874C86.9036 230.154 86.3276 230.294 85.6956 230.294ZM85.6956 229.106C86.0476 229.106 86.3756 229.022 86.6796 228.854C86.9916 228.686 87.2436 228.434 87.4356 228.098C87.6276 227.762 87.7236 227.354 87.7236 226.874C87.7236 226.394 87.6316 225.99 87.4476 225.662C87.2636 225.326 87.0196 225.074 86.7156 224.906C86.4116 224.738 86.0836 224.654 85.7316 224.654C85.3796 224.654 85.0516 224.738 84.7476 224.906C84.4516 225.074 84.2156 225.326 84.0396 225.662C83.8636 225.99 83.7756 226.394 83.7756 226.874C83.7756 227.586 83.9556 228.138 84.3156 228.53C84.6836 228.914 85.1436 229.106 85.6956 229.106ZM90.0239 226.85C90.0239 226.186 90.1599 225.598 90.4319 225.086C90.7119 224.574 91.0879 224.178 91.5599 223.898C92.0399 223.61 92.5719 223.466 93.1559 223.466C93.5879 223.466 94.0119 223.562 94.4279 223.754C94.8519 223.938 95.1879 224.186 95.4359 224.498V221.306H96.8159V230.186H95.4359V229.19C95.2119 229.51 94.8999 229.774 94.4999 229.982C94.1079 230.19 93.6559 230.294 93.1439 230.294C92.5679 230.294 92.0399 230.15 91.5599 229.862C91.0879 229.566 90.7119 229.158 90.4319 228.638C90.1599 228.11 90.0239 227.514 90.0239 226.85ZM95.4359 226.874C95.4359 226.418 95.3399 226.022 95.1479 225.686C94.9639 225.35 94.7199 225.094 94.4159 224.918C94.1119 224.742 93.7839 224.654 93.4319 224.654C93.0799 224.654 92.7519 224.742 92.4479 224.918C92.1439 225.086 91.8959 225.338 91.7039 225.674C91.5199 226.002 91.4279 226.394 91.4279 226.85C91.4279 227.306 91.5199 227.706 91.7039 228.05C91.8959 228.394 92.1439 228.658 92.4479 228.842C92.7599 229.018 93.0879 229.106 93.4319 229.106C93.7839 229.106 94.1119 229.018 94.4159 228.842C94.7199 228.666 94.9639 228.41 95.1479 228.074C95.3399 227.73 95.4359 227.33 95.4359 226.874ZM104.673 226.718C104.673 226.966 104.657 227.19 104.625 227.39H99.5727C99.6127 227.918 99.8087 228.342 100.161 228.662C100.513 228.982 100.945 229.142 101.457 229.142C102.193 229.142 102.713 228.834 103.017 228.218H104.493C104.293 228.826 103.929 229.326 103.401 229.718C102.881 230.102 102.233 230.294 101.457 230.294C100.825 230.294 100.257 230.154 99.7527 229.874C99.2567 229.586 98.8647 229.186 98.5767 228.674C98.2967 228.154 98.1567 227.554 98.1567 226.874C98.1567 226.194 98.2927 225.598 98.5647 225.086C98.8447 224.566 99.2327 224.166 99.7287 223.886C100.233 223.606 100.809 223.466 101.457 223.466C102.081 223.466 102.637 223.602 103.125 223.874C103.613 224.146 103.993 224.53 104.265 225.026C104.537 225.514 104.673 226.078 104.673 226.718ZM103.245 226.286C103.237 225.782 103.057 225.378 102.705 225.074C102.353 224.77 101.917 224.618 101.397 224.618C100.925 224.618 100.521 224.77 100.185 225.074C99.8487 225.37 99.6487 225.774 99.5847 226.286H103.245ZM84.6844 302.427C84.6844 306.204 81.4594 309.265 77.4812 309.265C73.5031 309.265 70.2781 306.204 70.2781 302.427C70.2781 298.651 73.5031 295.59 77.4812 295.59C81.4594 295.59 84.6844 298.651 84.6844 302.427ZM138.775 93.801C138.527 93.801 138.319 93.717 138.151 93.549C137.983 93.381 137.899 93.173 137.899 92.925C137.899 92.677 137.983 92.469 138.151 92.301C138.319 92.133 138.527 92.049 138.775 92.049C139.015 92.049 139.219 92.133 139.387 92.301C139.555 92.469 139.639 92.677 139.639 92.925C139.639 93.173 139.555 93.381 139.387 93.549C139.219 93.717 139.015 93.801 138.775 93.801ZM139.447 94.677V101.289H138.079V94.677H139.447ZM144.016 95.793H142.792V101.289H141.412V95.793H140.632V94.677H141.412V94.209C141.412 93.449 141.612 92.897 142.012 92.553C142.42 92.201 143.056 92.025 143.92 92.025V93.165C143.504 93.165 143.212 93.245 143.044 93.405C142.876 93.557 142.792 93.825 142.792 94.209V94.677H144.016V95.793ZM147.889 97.977C147.889 97.297 148.025 96.701 148.297 96.189C148.577 95.669 148.961 95.269 149.449 94.989C149.937 94.709 150.497 94.569 151.129 94.569C151.929 94.569 152.589 94.761 153.109 95.145C153.637 95.521 153.993 96.061 154.177 96.765H152.701C152.581 96.437 152.389 96.181 152.125 95.997C151.861 95.813 151.529 95.721 151.129 95.721C150.569 95.721 150.121 95.921 149.785 96.321C149.457 96.713 149.293 97.265 149.293 97.977C149.293 98.689 149.457 99.245 149.785 99.645C150.121 100.045 150.569 100.245 151.129 100.245C151.921 100.245 152.445 99.897 152.701 99.201H154.177C153.985 99.873 153.625 100.409 153.097 100.809C152.569 101.201 151.913 101.397 151.129 101.397C150.497 101.397 149.937 101.257 149.449 100.977C148.961 100.689 148.577 100.289 148.297 99.777C148.025 99.257 147.889 98.657 147.889 97.977ZM158.408 101.397C157.784 101.397 157.22 101.257 156.716 100.977C156.212 100.689 155.816 100.289 155.528 99.777C155.24 99.257 155.096 98.657 155.096 97.977C155.096 97.305 155.244 96.709 155.54 96.189C155.836 95.669 156.24 95.269 156.752 94.989C157.264 94.709 157.836 94.569 158.468 94.569C159.1 94.569 159.672 94.709 160.184 94.989C160.696 95.269 161.1 95.669 161.396 96.189C161.692 96.709 161.84 97.305 161.84 97.977C161.84 98.649 161.688 99.245 161.384 99.765C161.08 100.285 160.664 100.689 160.136 100.977C159.616 101.257 159.04 101.397 158.408 101.397ZM158.408 100.209C158.76 100.209 159.088 100.125 159.392 99.957C159.704 99.789 159.956 99.537 160.148 99.201C160.34 98.865 160.436 98.457 160.436 97.977C160.436 97.497 160.344 97.093 160.16 96.765C159.976 96.429 159.732 96.177 159.428 96.009C159.124 95.841 158.796 95.757 158.444 95.757C158.092 95.757 157.764 95.841 157.46 96.009C157.164 96.177 156.928 96.429 156.752 96.765C156.576 97.093 156.488 97.497 156.488 97.977C156.488 98.689 156.668 99.241 157.028 99.633C157.396 100.017 157.856 100.209 158.408 100.209ZM166.529 94.569C167.049 94.569 167.513 94.677 167.921 94.893C168.337 95.109 168.661 95.429 168.893 95.853C169.125 96.277 169.241 96.789 169.241 97.389V101.289H167.885V97.593C167.885 97.001 167.737 96.549 167.441 96.237C167.145 95.917 166.741 95.757 166.229 95.757C165.717 95.757 165.309 95.917 165.005 96.237C164.709 96.549 164.561 97.001 164.561 97.593V101.289H163.193V94.677H164.561V95.433C164.785 95.161 165.069 94.949 165.413 94.797C165.765 94.645 166.137 94.569 166.529 94.569ZM170.53 97.953C170.53 97.289 170.666 96.701 170.938 96.189C171.218 95.677 171.594 95.281 172.066 95.001C172.546 94.713 173.078 94.569 173.662 94.569C174.094 94.569 174.518 94.665 174.934 94.857C175.358 95.041 175.694 95.289 175.942 95.601V92.409H177.322V101.289H175.942V100.293C175.718 100.613 175.406 100.877 175.006 101.085C174.614 101.293 174.162 101.397 173.65 101.397C173.074 101.397 172.546 101.253 172.066 100.965C171.594 100.669 171.218 100.261 170.938 99.741C170.666 99.213 170.53 98.617 170.53 97.953ZM175.942 97.977C175.942 97.521 175.846 97.125 175.654 96.789C175.47 96.453 175.226 96.197 174.922 96.021C174.618 95.845 174.29 95.757 173.938 95.757C173.586 95.757 173.258 95.845 172.954 96.021C172.65 96.189 172.402 96.441 172.21 96.777C172.026 97.105 171.934 97.497 171.934 97.953C171.934 98.409 172.026 98.809 172.21 99.153C172.402 99.497 172.65 99.761 172.954 99.945C173.266 100.121 173.594 100.209 173.938 100.209C174.29 100.209 174.618 100.121 174.922 99.945C175.226 99.769 175.47 99.513 175.654 99.177C175.846 98.833 175.942 98.433 175.942 97.977ZM179.815 93.801C179.567 93.801 179.359 93.717 179.191 93.549C179.023 93.381 178.939 93.173 178.939 92.925C178.939 92.677 179.023 92.469 179.191 92.301C179.359 92.133 179.567 92.049 179.815 92.049C180.055 92.049 180.259 92.133 180.427 92.301C180.595 92.469 180.679 92.677 180.679 92.925C180.679 93.173 180.595 93.381 180.427 93.549C180.259 93.717 180.055 93.801 179.815 93.801ZM180.487 94.677V101.289H179.119V94.677H180.487ZM183.879 95.793V99.453C183.879 99.701 183.935 99.881 184.047 99.993C184.167 100.097 184.367 100.149 184.647 100.149H185.487V101.289H184.407C183.791 101.289 183.319 101.145 182.991 100.857C182.663 100.569 182.499 100.101 182.499 99.453V95.793H181.719V94.677H182.499V93.033H183.879V94.677H185.487V95.793H183.879ZM187.443 93.801C187.195 93.801 186.987 93.717 186.819 93.549C186.651 93.381 186.567 93.173 186.567 92.925C186.567 92.677 186.651 92.469 186.819 92.301C186.987 92.133 187.195 92.049 187.443 92.049C187.683 92.049 187.887 92.133 188.055 92.301C188.223 92.469 188.307 92.677 188.307 92.925C188.307 93.173 188.223 93.381 188.055 93.549C187.887 93.717 187.683 93.801 187.443 93.801ZM188.115 94.677V101.289H186.747V94.677H188.115ZM192.78 101.397C192.156 101.397 191.592 101.257 191.088 100.977C190.584 100.689 190.188 100.289 189.9 99.777C189.612 99.257 189.468 98.657 189.468 97.977C189.468 97.305 189.616 96.709 189.912 96.189C190.208 95.669 190.612 95.269 191.124 94.989C191.636 94.709 192.208 94.569 192.84 94.569C193.472 94.569 194.044 94.709 194.556 94.989C195.068 95.269 195.472 95.669 195.768 96.189C196.064 96.709 196.212 97.305 196.212 97.977C196.212 98.649 196.06 99.245 195.756 99.765C195.452 100.285 195.036 100.689 194.508 100.977C193.988 101.257 193.412 101.397 192.78 101.397ZM192.78 100.209C193.132 100.209 193.46 100.125 193.764 99.957C194.076 99.789 194.328 99.537 194.52 99.201C194.712 98.865 194.808 98.457 194.808 97.977C194.808 97.497 194.716 97.093 194.532 96.765C194.348 96.429 194.104 96.177 193.8 96.009C193.496 95.841 193.168 95.757 192.816 95.757C192.464 95.757 192.136 95.841 191.832 96.009C191.536 96.177 191.3 96.429 191.124 96.765C190.948 97.093 190.86 97.497 190.86 97.977C190.86 98.689 191.04 99.241 191.4 99.633C191.768 100.017 192.228 100.209 192.78 100.209ZM200.9 94.569C201.42 94.569 201.884 94.677 202.292 94.893C202.708 95.109 203.032 95.429 203.264 95.853C203.496 96.277 203.612 96.789 203.612 97.389V101.289H202.256V97.593C202.256 97.001 202.108 96.549 201.812 96.237C201.516 95.917 201.112 95.757 200.6 95.757C200.088 95.757 199.68 95.917 199.376 96.237C199.08 96.549 198.932 97.001 198.932 97.593V101.289H197.564V94.677H198.932V95.433C199.156 95.161 199.44 94.949 199.784 94.797C200.136 94.645 200.508 94.569 200.9 94.569ZM138.775 111.801C138.527 111.801 138.319 111.717 138.151 111.549C137.983 111.381 137.899 111.173 137.899 110.925C137.899 110.677 137.983 110.469 138.151 110.301C138.319 110.133 138.527 110.049 138.775 110.049C139.015 110.049 139.219 110.133 139.387 110.301C139.555 110.469 139.639 110.677 139.639 110.925C139.639 111.173 139.555 111.381 139.387 111.549C139.219 111.717 139.015 111.801 138.775 111.801ZM139.447 112.677V119.289H138.079V112.677H139.447ZM143.644 119.397C143.124 119.397 142.656 119.305 142.24 119.121C141.832 118.929 141.508 118.673 141.268 118.353C141.028 118.025 140.9 117.661 140.884 117.261H142.3C142.324 117.541 142.456 117.777 142.696 117.969C142.944 118.153 143.252 118.245 143.62 118.245C144.004 118.245 144.3 118.173 144.508 118.029C144.724 117.877 144.832 117.685 144.832 117.453C144.832 117.205 144.712 117.021 144.472 116.901C144.24 116.781 143.868 116.649 143.356 116.505C142.86 116.369 142.456 116.237 142.144 116.109C141.832 115.981 141.56 115.785 141.328 115.521C141.104 115.257 140.992 114.909 140.992 114.477C140.992 114.125 141.096 113.805 141.304 113.517C141.512 113.221 141.808 112.989 142.192 112.821C142.584 112.653 143.032 112.569 143.536 112.569C144.288 112.569 144.892 112.761 145.348 113.145C145.812 113.521 146.06 114.037 146.092 114.693H144.724C144.7 114.397 144.58 114.161 144.364 113.985C144.148 113.809 143.856 113.721 143.488 113.721C143.128 113.721 142.852 113.789 142.66 113.925C142.468 114.061 142.372 114.241 142.372 114.465C142.372 114.641 142.436 114.789 142.564 114.909C142.692 115.029 142.848 115.125 143.032 115.197C143.216 115.261 143.488 115.345 143.848 115.449C144.328 115.577 144.72 115.709 145.024 115.845C145.336 115.973 145.604 116.165 145.828 116.421C146.052 116.677 146.168 117.017 146.176 117.441C146.176 117.817 146.072 118.153 145.864 118.449C145.656 118.745 145.36 118.977 144.976 119.145C144.6 119.313 144.156 119.397 143.644 119.397ZM152.367 113.793V117.453C152.367 117.701 152.423 117.881 152.535 117.993C152.655 118.097 152.855 118.149 153.135 118.149H153.975V119.289H152.895C152.279 119.289 151.807 119.145 151.479 118.857C151.151 118.569 150.987 118.101 150.987 117.453V113.793H150.207V112.677H150.987V111.033H152.367V112.677H153.975V113.793H152.367ZM156.604 113.637C156.804 113.301 157.068 113.041 157.396 112.857C157.732 112.665 158.128 112.569 158.584 112.569V113.985H158.236C157.7 113.985 157.292 114.121 157.012 114.393C156.74 114.665 156.604 115.137 156.604 115.809V119.289H155.236V112.677H156.604V113.637ZM165.829 112.677V119.289H164.461V118.509C164.245 118.781 163.961 118.997 163.609 119.157C163.265 119.309 162.897 119.385 162.505 119.385C161.985 119.385 161.517 119.277 161.101 119.061C160.693 118.845 160.369 118.525 160.129 118.101C159.897 117.677 159.781 117.165 159.781 116.565V112.677H161.137V116.361C161.137 116.953 161.285 117.409 161.581 117.729C161.877 118.041 162.281 118.197 162.793 118.197C163.305 118.197 163.709 118.041 164.005 117.729C164.309 117.409 164.461 116.953 164.461 116.361V112.677H165.829ZM173.694 115.821C173.694 116.069 173.678 116.293 173.646 116.493H168.594C168.634 117.021 168.83 117.445 169.182 117.765C169.534 118.085 169.966 118.245 170.478 118.245C171.214 118.245 171.734 117.937 172.038 117.321H173.514C173.314 117.929 172.95 118.429 172.422 118.821C171.902 119.205 171.254 119.397 170.478 119.397C169.846 119.397 169.278 119.257 168.774 118.977C168.278 118.689 167.886 118.289 167.598 117.777C167.318 117.257 167.178 116.657 167.178 115.977C167.178 115.297 167.314 114.701 167.586 114.189C167.866 113.669 168.254 113.269 168.75 112.989C169.254 112.709 169.83 112.569 170.478 112.569C171.102 112.569 171.658 112.705 172.146 112.977C172.634 113.249 173.014 113.633 173.286 114.129C173.558 114.617 173.694 115.181 173.694 115.821ZM172.266 115.389C172.258 114.885 172.078 114.481 171.726 114.177C171.374 113.873 170.938 113.721 170.418 113.721C169.946 113.721 169.542 113.873 169.206 114.177C168.87 114.473 168.67 114.877 168.606 115.389H172.266ZM10.252 175.16C10.42 175.328 10.628 175.412 10.876 175.412C11.116 175.412 11.32 175.328 11.488 175.16C11.656 174.992 11.74 174.784 11.74 174.536C11.74 174.288 11.656 174.08 11.488 173.912C11.32 173.744 11.116 173.66 10.876 173.66C10.628 173.66 10.42 173.744 10.252 173.912C10.084 174.08 10 174.288 10 174.536C10 174.784 10.084 174.992 10.252 175.16ZM11.548 182.9V176.288H10.18V182.9H11.548ZM14.8921 177.404H16.1161V176.288H14.8921V175.82C14.8921 175.436 14.9761 175.168 15.1441 175.016C15.3121 174.856 15.6041 174.776 16.0201 174.776V173.636C15.1561 173.636 14.5201 173.812 14.1121 174.164C13.7121 174.508 13.5121 175.06 13.5121 175.82V176.288H12.7321V177.404H13.5121V182.9H14.8921V177.404ZM20.3976 177.8C20.1256 178.312 19.9896 178.908 19.9896 179.588C19.9896 180.268 20.1256 180.868 20.3976 181.388C20.6776 181.9 21.0616 182.3 21.5496 182.588C22.0376 182.868 22.5976 183.008 23.2296 183.008C24.0136 183.008 24.6696 182.812 25.1976 182.42C25.7256 182.02 26.0856 181.484 26.2776 180.812H24.8016C24.5456 181.508 24.0216 181.856 23.2296 181.856C22.6696 181.856 22.2216 181.656 21.8856 181.256C21.5576 180.856 21.3936 180.3 21.3936 179.588C21.3936 178.876 21.5576 178.324 21.8856 177.932C22.2216 177.532 22.6696 177.332 23.2296 177.332C23.6296 177.332 23.9616 177.424 24.2256 177.608C24.4896 177.792 24.6816 178.048 24.8016 178.376H26.2776C26.0936 177.672 25.7376 177.132 25.2096 176.756C24.6896 176.372 24.0296 176.18 23.2296 176.18C22.5976 176.18 22.0376 176.32 21.5496 176.6C21.0616 176.88 20.6776 177.28 20.3976 177.8ZM28.8169 182.588C29.3209 182.868 29.8849 183.008 30.5089 183.008C31.1409 183.008 31.7169 182.868 32.2369 182.588C32.7649 182.3 33.1809 181.896 33.4849 181.376C33.7889 180.856 33.9409 180.26 33.9409 179.588C33.9409 178.916 33.7929 178.32 33.4969 177.8C33.2009 177.28 32.7969 176.88 32.2849 176.6C31.7729 176.32 31.2009 176.18 30.5689 176.18C29.9369 176.18 29.3649 176.32 28.8529 176.6C28.3409 176.88 27.9369 177.28 27.6409 177.8C27.3449 178.32 27.1969 178.916 27.1969 179.588C27.1969 180.268 27.3409 180.868 27.6289 181.388C27.9169 181.9 28.3129 182.3 28.8169 182.588ZM31.4929 181.568C31.1889 181.736 30.8609 181.82 30.5089 181.82C29.9569 181.82 29.4969 181.628 29.1289 181.244C28.7689 180.852 28.5889 180.3 28.5889 179.588C28.5889 179.108 28.6769 178.704 28.8529 178.376C29.0289 178.04 29.2649 177.788 29.5609 177.62C29.8649 177.452 30.1929 177.368 30.5449 177.368C30.8969 177.368 31.2249 177.452 31.5289 177.62C31.8329 177.788 32.0769 178.04 32.2609 178.376C32.4449 178.704 32.5369 179.108 32.5369 179.588C32.5369 180.068 32.4409 180.476 32.2489 180.812C32.0569 181.148 31.8049 181.4 31.4929 181.568ZM40.0213 176.504C39.6133 176.288 39.1493 176.18 38.6293 176.18C38.2373 176.18 37.8653 176.256 37.5133 176.408C37.1693 176.56 36.8853 176.772 36.6613 177.044V176.288H35.2933V182.9H36.6613V179.204C36.6613 178.612 36.8093 178.16 37.1053 177.848C37.4093 177.528 37.8173 177.368 38.3293 177.368C38.8413 177.368 39.2453 177.528 39.5413 177.848C39.8373 178.16 39.9853 178.612 39.9853 179.204V182.9H41.3413V179C41.3413 178.4 41.2253 177.888 40.9933 177.464C40.7613 177.04 40.4373 176.72 40.0213 176.504ZM43.0382 177.8C42.7662 178.312 42.6302 178.9 42.6302 179.564C42.6302 180.228 42.7662 180.824 43.0382 181.352C43.3183 181.872 43.6943 182.28 44.1663 182.576C44.6463 182.864 45.1743 183.008 45.7503 183.008C46.2623 183.008 46.7143 182.904 47.1062 182.696C47.5063 182.488 47.8183 182.224 48.0423 181.904V182.9H49.4223V174.02H48.0423V177.212C47.7942 176.9 47.4583 176.652 47.0343 176.468C46.6183 176.276 46.1943 176.18 45.7623 176.18C45.1782 176.18 44.6463 176.324 44.1663 176.612C43.6943 176.892 43.3183 177.288 43.0382 177.8ZM47.7542 178.4C47.9463 178.736 48.0423 179.132 48.0423 179.588C48.0423 180.044 47.9463 180.444 47.7542 180.788C47.5703 181.124 47.3263 181.38 47.0223 181.556C46.7182 181.732 46.3903 181.82 46.0382 181.82C45.6943 181.82 45.3663 181.732 45.0543 181.556C44.7503 181.372 44.5022 181.108 44.3102 180.764C44.1263 180.42 44.0343 180.02 44.0343 179.564C44.0343 179.108 44.1263 178.716 44.3102 178.388C44.5022 178.052 44.7503 177.8 45.0543 177.632C45.3582 177.456 45.6863 177.368 46.0382 177.368C46.3903 177.368 46.7182 177.456 47.0223 177.632C47.3263 177.808 47.5703 178.064 47.7542 178.4ZM51.2911 175.16C51.4591 175.328 51.6671 175.412 51.9151 175.412C52.1551 175.412 52.3591 175.328 52.5271 175.16C52.6951 174.992 52.7791 174.784 52.7791 174.536C52.7791 174.288 52.6951 174.08 52.5271 173.912C52.3591 173.744 52.1551 173.66 51.9151 173.66C51.6671 173.66 51.4591 173.744 51.2911 173.912C51.1231 174.08 51.0391 174.288 51.0391 174.536C51.0391 174.784 51.1231 174.992 51.2911 175.16ZM52.5871 182.9V176.288H51.2191V182.9H52.5871ZM55.9791 181.064V177.404H57.5871V176.288H55.9791V174.644H54.5991V176.288H53.8191V177.404H54.5991V181.064C54.5991 181.712 54.7631 182.18 55.0911 182.468C55.4191 182.756 55.8911 182.9 56.5071 182.9H57.5871V181.76H56.7471C56.4671 181.76 56.2671 181.708 56.1471 181.604C56.0351 181.492 55.9791 181.312 55.9791 181.064ZM58.92 175.16C59.088 175.328 59.296 175.412 59.544 175.412C59.784 175.412 59.988 175.328 60.156 175.16C60.324 174.992 60.408 174.784 60.408 174.536C60.408 174.288 60.324 174.08 60.156 173.912C59.988 173.744 59.784 173.66 59.544 173.66C59.296 173.66 59.088 173.744 58.92 173.912C58.752 174.08 58.668 174.288 58.668 174.536C58.668 174.784 58.752 174.992 58.92 175.16ZM60.216 182.9V176.288H58.848V182.9H60.216ZM63.188 182.588C63.692 182.868 64.256 183.008 64.88 183.008C65.512 183.008 66.088 182.868 66.608 182.588C67.136 182.3 67.552 181.896 67.856 181.376C68.16 180.856 68.312 180.26 68.312 179.588C68.312 178.916 68.164 178.32 67.868 177.8C67.572 177.28 67.168 176.88 66.656 176.6C66.144 176.32 65.572 176.18 64.94 176.18C64.308 176.18 63.736 176.32 63.224 176.6C62.712 176.88 62.308 177.28 62.012 177.8C61.716 178.32 61.568 178.916 61.568 179.588C61.568 180.268 61.712 180.868 62 181.388C62.288 181.9 62.684 182.3 63.188 182.588ZM65.864 181.568C65.56 181.736 65.232 181.82 64.88 181.82C64.328 181.82 63.868 181.628 63.5 181.244C63.14 180.852 62.96 180.3 62.96 179.588C62.96 179.108 63.048 178.704 63.224 178.376C63.4 178.04 63.636 177.788 63.932 177.62C64.236 177.452 64.564 177.368 64.916 177.368C65.268 177.368 65.596 177.452 65.9 177.62C66.204 177.788 66.448 178.04 66.632 178.376C66.816 178.704 66.908 179.108 66.908 179.588C66.908 180.068 66.812 180.476 66.62 180.812C66.428 181.148 66.176 181.4 65.864 181.568ZM74.3924 176.504C73.9844 176.288 73.5204 176.18 73.0004 176.18C72.6084 176.18 72.2364 176.256 71.8844 176.408C71.5404 176.56 71.2564 176.772 71.0324 177.044V176.288H69.6644V182.9H71.0324V179.204C71.0324 178.612 71.1804 178.16 71.4764 177.848C71.7804 177.528 72.1884 177.368 72.7004 177.368C73.2124 177.368 73.6164 177.528 73.9124 177.848C74.2084 178.16 74.3564 178.612 74.3564 179.204V182.9H75.7124V179C75.7124 178.4 75.5964 177.888 75.3644 177.464C75.1324 177.04 74.8084 176.72 74.3924 176.504ZM10.252 193.16C10.42 193.328 10.628 193.412 10.876 193.412C11.116 193.412 11.32 193.328 11.488 193.16C11.656 192.992 11.74 192.784 11.74 192.536C11.74 192.288 11.656 192.08 11.488 191.912C11.32 191.744 11.116 191.66 10.876 191.66C10.628 191.66 10.42 191.744 10.252 191.912C10.084 192.08 10 192.288 10 192.536C10 192.784 10.084 192.992 10.252 193.16ZM11.548 200.9V194.288H10.18V200.9H11.548ZM14.3401 200.732C14.7561 200.916 15.2241 201.008 15.7441 201.008C16.2561 201.008 16.7001 200.924 17.0761 200.756C17.4601 200.588 17.7561 200.356 17.9641 200.06C18.1721 199.764 18.2761 199.428 18.2761 199.052C18.2681 198.628 18.1521 198.288 17.9281 198.032C17.7041 197.776 17.4361 197.584 17.1241 197.456C16.8201 197.32 16.4281 197.188 15.9481 197.06C15.5881 196.956 15.3161 196.872 15.1321 196.808C14.9481 196.736 14.7921 196.64 14.6641 196.52C14.5361 196.4 14.4721 196.252 14.4721 196.076C14.4721 195.852 14.5681 195.672 14.7601 195.536C14.9521 195.4 15.2281 195.332 15.5881 195.332C15.9561 195.332 16.2481 195.42 16.4641 195.596C16.6801 195.772 16.8001 196.008 16.8241 196.304H18.1921C18.1601 195.648 17.9121 195.132 17.4481 194.756C16.9921 194.372 16.3881 194.18 15.6361 194.18C15.1321 194.18 14.6841 194.264 14.2921 194.432C13.9081 194.6 13.6121 194.832 13.4041 195.128C13.1961 195.416 13.0921 195.736 13.0921 196.088C13.0921 196.52 13.2041 196.868 13.4281 197.132C13.6601 197.396 13.9321 197.592 14.2441 197.72C14.5561 197.848 14.9601 197.98 15.4561 198.116C15.9681 198.26 16.3401 198.392 16.5721 198.512C16.8121 198.632 16.9321 198.816 16.9321 199.064C16.9321 199.296 16.8241 199.488 16.6081 199.64C16.4001 199.784 16.1041 199.856 15.7201 199.856C15.3521 199.856 15.0441 199.764 14.7961 199.58C14.5561 199.388 14.4241 199.152 14.4001 198.872H12.9841C13.0001 199.272 13.1281 199.636 13.3681 199.964C13.6081 200.284 13.9321 200.54 14.3401 200.732ZM24.4194 195.404H25.6434V194.288H24.4194V193.82C24.4194 193.436 24.5034 193.168 24.6714 193.016C24.8394 192.856 25.1314 192.776 25.5474 192.776V191.636C24.6834 191.636 24.0474 191.812 23.6394 192.164C23.2394 192.508 23.0394 193.06 23.0394 193.82V194.288H22.2594V195.404H23.0394V200.9H24.4194V195.404ZM26.8078 195.8C26.5358 196.312 26.3998 196.9 26.3998 197.564C26.3998 198.228 26.5358 198.824 26.8078 199.352C27.0878 199.872 27.4638 200.28 27.9358 200.576C28.4078 200.864 28.9278 201.008 29.4958 201.008C30.0078 201.008 30.4638 200.904 30.8638 200.696C31.2638 200.488 31.5798 200.228 31.8118 199.916V200.9H33.1918V194.288H31.8118V195.248C31.5798 194.944 31.2678 194.692 30.8758 194.492C30.4918 194.284 30.0398 194.18 29.5198 194.18C28.9438 194.18 28.4158 194.324 27.9358 194.612C27.4638 194.892 27.0878 195.288 26.8078 195.8ZM31.5238 196.4C31.7158 196.736 31.8118 197.132 31.8118 197.588C31.8118 198.044 31.7158 198.444 31.5238 198.788C31.3398 199.124 31.0958 199.38 30.7918 199.556C30.4878 199.732 30.1598 199.82 29.8078 199.82C29.4638 199.82 29.1358 199.732 28.8238 199.556C28.5198 199.372 28.2718 199.108 28.0798 198.764C27.8958 198.42 27.8038 198.02 27.8038 197.564C27.8038 197.108 27.8958 196.716 28.0798 196.388C28.2718 196.052 28.5198 195.8 28.8238 195.632C29.1278 195.456 29.4558 195.368 29.8078 195.368C30.1598 195.368 30.4878 195.456 30.7918 195.632C31.0958 195.808 31.3398 196.064 31.5238 196.4ZM36.3566 200.9V192.02H34.9886V200.9H36.3566ZM39.1487 200.732C39.5647 200.916 40.0327 201.008 40.5527 201.008C41.0647 201.008 41.5087 200.924 41.8847 200.756C42.2687 200.588 42.5647 200.356 42.7727 200.06C42.9807 199.764 43.0847 199.428 43.0847 199.052C43.0767 198.628 42.9607 198.288 42.7367 198.032C42.5127 197.776 42.2447 197.584 41.9327 197.456C41.6287 197.32 41.2367 197.188 40.7567 197.06C40.3967 196.956 40.1247 196.872 39.9407 196.808C39.7567 196.736 39.6007 196.64 39.4727 196.52C39.3447 196.4 39.2807 196.252 39.2807 196.076C39.2807 195.852 39.3767 195.672 39.5687 195.536C39.7607 195.4 40.0367 195.332 40.3967 195.332C40.7647 195.332 41.0567 195.42 41.2727 195.596C41.4887 195.772 41.6087 196.008 41.6327 196.304H43.0007C42.9687 195.648 42.7207 195.132 42.2567 194.756C41.8007 194.372 41.1967 194.18 40.4447 194.18C39.9407 194.18 39.4927 194.264 39.1007 194.432C38.7167 194.6 38.4207 194.832 38.2127 195.128C38.0047 195.416 37.9007 195.736 37.9007 196.088C37.9007 196.52 38.0127 196.868 38.2367 197.132C38.4687 197.396 38.7407 197.592 39.0527 197.72C39.3647 197.848 39.7687 197.98 40.2647 198.116C40.7767 198.26 41.1487 198.392 41.3807 198.512C41.6207 198.632 41.7407 198.816 41.7407 199.064C41.7407 199.296 41.6327 199.488 41.4167 199.64C41.2087 199.784 40.9127 199.856 40.5287 199.856C40.1607 199.856 39.8527 199.764 39.6047 199.58C39.3647 199.388 39.2327 199.152 39.2087 198.872H37.7927C37.8087 199.272 37.9367 199.636 38.1767 199.964C38.4167 200.284 38.7407 200.54 39.1487 200.732ZM50.5748 198.104C50.6068 197.904 50.6228 197.68 50.6228 197.432C50.6228 196.792 50.4868 196.228 50.2148 195.74C49.9428 195.244 49.5628 194.86 49.0748 194.588C48.5868 194.316 48.0308 194.18 47.4068 194.18C46.7588 194.18 46.1828 194.32 45.6788 194.6C45.1828 194.88 44.7948 195.28 44.5148 195.8C44.2428 196.312 44.1068 196.908 44.1068 197.588C44.1068 198.268 44.2468 198.868 44.5268 199.388C44.8148 199.9 45.2068 200.3 45.7028 200.588C46.2068 200.868 46.7748 201.008 47.4068 201.008C48.1828 201.008 48.8308 200.816 49.3508 200.432C49.8788 200.04 50.2428 199.54 50.4428 198.932H48.9668C48.6628 199.548 48.1428 199.856 47.4068 199.856C46.8948 199.856 46.4628 199.696 46.1108 199.376C45.7588 199.056 45.5628 198.632 45.5228 198.104H50.5748ZM48.6548 195.788C49.0068 196.092 49.1868 196.496 49.1948 197H45.5348C45.5988 196.488 45.7988 196.084 46.1348 195.788C46.4708 195.484 46.8748 195.332 47.3468 195.332C47.8668 195.332 48.3028 195.484 48.6548 195.788Z" fill="white"/>
<path d="M237.444 115.812C237.444 114.996 237.632 114.264 238.008 113.616C238.392 112.968 238.908 112.464 239.556 112.104C240.212 111.736 240.928 111.552 241.704 111.552C242.592 111.552 243.38 111.772 244.068 112.212C244.764 112.644 245.268 113.26 245.58 114.06H243.936C243.72 113.62 243.42 113.292 243.036 113.076C242.652 112.86 242.208 112.752 241.704 112.752C241.152 112.752 240.66 112.876 240.228 113.124C239.796 113.372 239.456 113.728 239.208 114.192C238.968 114.656 238.848 115.196 238.848 115.812C238.848 116.428 238.968 116.968 239.208 117.432C239.456 117.896 239.796 118.256 240.228 118.512C240.66 118.76 241.152 118.884 241.704 118.884C242.208 118.884 242.652 118.776 243.036 118.56C243.42 118.344 243.72 118.016 243.936 117.576H245.58C245.268 118.376 244.764 118.992 244.068 119.424C243.38 119.856 242.592 120.072 241.704 120.072C240.92 120.072 240.204 119.892 239.556 119.532C238.908 119.164 238.392 118.656 238.008 118.008C237.632 117.36 237.444 116.628 237.444 115.812ZM250.049 120.108C249.425 120.108 248.861 119.968 248.357 119.688C247.853 119.4 247.457 119 247.169 118.488C246.881 117.968 246.737 117.368 246.737 116.688C246.737 116.016 246.885 115.42 247.181 114.9C247.477 114.38 247.881 113.98 248.393 113.7C248.905 113.42 249.477 113.28 250.109 113.28C250.741 113.28 251.313 113.42 251.825 113.7C252.337 113.98 252.741 114.38 253.037 114.9C253.333 115.42 253.481 116.016 253.481 116.688C253.481 117.36 253.329 117.956 253.025 118.476C252.721 118.996 252.305 119.4 251.777 119.688C251.257 119.968 250.681 120.108 250.049 120.108ZM250.049 118.92C250.401 118.92 250.729 118.836 251.033 118.668C251.345 118.5 251.597 118.248 251.789 117.912C251.981 117.576 252.077 117.168 252.077 116.688C252.077 116.208 251.985 115.804 251.801 115.476C251.617 115.14 251.373 114.888 251.069 114.72C250.765 114.552 250.437 114.468 250.085 114.468C249.733 114.468 249.405 114.552 249.101 114.72C248.805 114.888 248.569 115.14 248.393 115.476C248.217 115.804 248.129 116.208 248.129 116.688C248.129 117.4 248.309 117.952 248.669 118.344C249.037 118.728 249.497 118.92 250.049 118.92ZM254.378 116.664C254.378 116 254.514 115.412 254.786 114.9C255.066 114.388 255.442 113.992 255.914 113.712C256.394 113.424 256.926 113.28 257.51 113.28C257.942 113.28 258.366 113.376 258.782 113.568C259.206 113.752 259.542 114 259.79 114.312V111.12H261.17V120H259.79V119.004C259.566 119.324 259.254 119.588 258.854 119.796C258.462 120.004 258.01 120.108 257.498 120.108C256.922 120.108 256.394 119.964 255.914 119.676C255.442 119.38 255.066 118.972 254.786 118.452C254.514 117.924 254.378 117.328 254.378 116.664ZM259.79 116.688C259.79 116.232 259.694 115.836 259.502 115.5C259.318 115.164 259.074 114.908 258.77 114.732C258.466 114.556 258.138 114.468 257.786 114.468C257.434 114.468 257.106 114.556 256.802 114.732C256.498 114.9 256.25 115.152 256.058 115.488C255.874 115.816 255.782 116.208 255.782 116.664C255.782 117.12 255.874 117.52 256.058 117.864C256.25 118.208 256.498 118.472 256.802 118.656C257.114 118.832 257.442 118.92 257.786 118.92C258.138 118.92 258.466 118.832 258.77 118.656C259.074 118.48 259.318 118.224 259.502 117.888C259.694 117.544 259.79 117.144 259.79 116.688ZM269.026 116.532C269.026 116.78 269.01 117.004 268.978 117.204H263.926C263.966 117.732 264.162 118.156 264.514 118.476C264.866 118.796 265.298 118.956 265.81 118.956C266.546 118.956 267.066 118.648 267.37 118.032H268.846C268.646 118.64 268.282 119.14 267.754 119.532C267.234 119.916 266.586 120.108 265.81 120.108C265.178 120.108 264.61 119.968 264.106 119.688C263.61 119.4 263.218 119 262.93 118.488C262.65 117.968 262.51 117.368 262.51 116.688C262.51 116.008 262.646 115.412 262.918 114.9C263.198 114.38 263.586 113.98 264.082 113.7C264.586 113.42 265.162 113.28 265.81 113.28C266.434 113.28 266.99 113.416 267.478 113.688C267.966 113.96 268.346 114.344 268.618 114.84C268.89 115.328 269.026 115.892 269.026 116.532ZM267.598 116.1C267.59 115.596 267.41 115.192 267.058 114.888C266.706 114.584 266.27 114.432 265.75 114.432C265.278 114.432 264.874 114.584 264.538 114.888C264.202 115.184 264.002 115.588 263.938 116.1H267.598ZM270.925 120.084C270.677 120.084 270.469 120 270.301 119.832C270.133 119.664 270.049 119.456 270.049 119.208C270.049 118.96 270.133 118.752 270.301 118.584C270.469 118.416 270.677 118.332 270.925 118.332C271.165 118.332 271.369 118.416 271.537 118.584C271.705 118.752 271.789 118.96 271.789 119.208C271.789 119.456 271.705 119.664 271.537 119.832C271.369 120 271.165 120.084 270.925 120.084ZM270.925 115.044C270.677 115.044 270.469 114.96 270.301 114.792C270.133 114.624 270.049 114.416 270.049 114.168C270.049 113.92 270.133 113.712 270.301 113.544C270.469 113.376 270.677 113.292 270.925 113.292C271.165 113.292 271.369 113.376 271.537 113.544C271.705 113.712 271.789 113.92 271.789 114.168C271.789 114.416 271.705 114.624 271.537 114.792C271.369 114.96 271.165 115.044 270.925 115.044ZM238.596 148.512C238.348 148.512 238.14 148.428 237.972 148.26C237.804 148.092 237.72 147.884 237.72 147.636C237.72 147.388 237.804 147.18 237.972 147.012C238.14 146.844 238.348 146.76 238.596 146.76C238.836 146.76 239.04 146.844 239.208 147.012C239.376 147.18 239.46 147.388 239.46 147.636C239.46 147.884 239.376 148.092 239.208 148.26C239.04 148.428 238.836 148.512 238.596 148.512ZM239.268 149.388V156H237.9V149.388H239.268ZM243.836 150.504H242.612V156H241.232V150.504H240.452V149.388H241.232V148.92C241.232 148.16 241.432 147.608 241.832 147.264C242.24 146.912 242.876 146.736 243.74 146.736V147.876C243.324 147.876 243.032 147.956 242.864 148.116C242.696 148.268 242.612 148.536 242.612 148.92V149.388H243.836V150.504ZM247.71 152.688C247.71 152.008 247.846 151.412 248.118 150.9C248.398 150.38 248.782 149.98 249.27 149.7C249.758 149.42 250.318 149.28 250.95 149.28C251.75 149.28 252.41 149.472 252.93 149.856C253.458 150.232 253.814 150.772 253.998 151.476H252.522C252.402 151.148 252.21 150.892 251.946 150.708C251.682 150.524 251.35 150.432 250.95 150.432C250.39 150.432 249.942 150.632 249.606 151.032C249.278 151.424 249.114 151.976 249.114 152.688C249.114 153.4 249.278 153.956 249.606 154.356C249.942 154.756 250.39 154.956 250.95 154.956C251.742 154.956 252.266 154.608 252.522 153.912H253.998C253.806 154.584 253.446 155.12 252.918 155.52C252.39 155.912 251.734 156.108 250.95 156.108C250.318 156.108 249.758 155.968 249.27 155.688C248.782 155.4 248.398 155 248.118 154.488C247.846 153.968 247.71 153.368 247.71 152.688ZM258.229 156.108C257.605 156.108 257.041 155.968 256.537 155.688C256.033 155.4 255.637 155 255.349 154.488C255.061 153.968 254.917 153.368 254.917 152.688C254.917 152.016 255.065 151.42 255.361 150.9C255.657 150.38 256.061 149.98 256.573 149.7C257.085 149.42 257.657 149.28 258.289 149.28C258.921 149.28 259.493 149.42 260.005 149.7C260.517 149.98 260.921 150.38 261.217 150.9C261.513 151.42 261.661 152.016 261.661 152.688C261.661 153.36 261.509 153.956 261.205 154.476C260.901 154.996 260.485 155.4 259.957 155.688C259.437 155.968 258.861 156.108 258.229 156.108ZM258.229 154.92C258.581 154.92 258.909 154.836 259.213 154.668C259.525 154.5 259.777 154.248 259.969 153.912C260.161 153.576 260.257 153.168 260.257 152.688C260.257 152.208 260.165 151.804 259.981 151.476C259.797 151.14 259.553 150.888 259.249 150.72C258.945 150.552 258.617 150.468 258.265 150.468C257.913 150.468 257.585 150.552 257.281 150.72C256.985 150.888 256.749 151.14 256.573 151.476C256.397 151.804 256.309 152.208 256.309 152.688C256.309 153.4 256.489 153.952 256.849 154.344C257.217 154.728 257.677 154.92 258.229 154.92ZM266.349 149.28C266.869 149.28 267.333 149.388 267.741 149.604C268.157 149.82 268.481 150.14 268.713 150.564C268.945 150.988 269.061 151.5 269.061 152.1V156H267.705V152.304C267.705 151.712 267.557 151.26 267.261 150.948C266.965 150.628 266.561 150.468 266.049 150.468C265.537 150.468 265.129 150.628 264.825 150.948C264.529 151.26 264.381 151.712 264.381 152.304V156H263.013V149.388H264.381V150.144C264.605 149.872 264.889 149.66 265.233 149.508C265.585 149.356 265.957 149.28 266.349 149.28ZM270.35 152.664C270.35 152 270.486 151.412 270.758 150.9C271.038 150.388 271.414 149.992 271.886 149.712C272.366 149.424 272.898 149.28 273.482 149.28C273.914 149.28 274.338 149.376 274.754 149.568C275.178 149.752 275.514 150 275.762 150.312V147.12H277.142V156H275.762V155.004C275.538 155.324 275.226 155.588 274.826 155.796C274.434 156.004 273.982 156.108 273.47 156.108C272.894 156.108 272.366 155.964 271.886 155.676C271.414 155.38 271.038 154.972 270.758 154.452C270.486 153.924 270.35 153.328 270.35 152.664ZM275.762 152.688C275.762 152.232 275.666 151.836 275.474 151.5C275.29 151.164 275.046 150.908 274.742 150.732C274.438 150.556 274.11 150.468 273.758 150.468C273.406 150.468 273.078 150.556 272.774 150.732C272.47 150.9 272.222 151.152 272.03 151.488C271.846 151.816 271.754 152.208 271.754 152.664C271.754 153.12 271.846 153.52 272.03 153.864C272.222 154.208 272.47 154.472 272.774 154.656C273.086 154.832 273.414 154.92 273.758 154.92C274.11 154.92 274.438 154.832 274.742 154.656C275.046 154.48 275.29 154.224 275.474 153.888C275.666 153.544 275.762 153.144 275.762 152.688ZM279.635 148.512C279.387 148.512 279.179 148.428 279.011 148.26C278.843 148.092 278.759 147.884 278.759 147.636C278.759 147.388 278.843 147.18 279.011 147.012C279.179 146.844 279.387 146.76 279.635 146.76C279.875 146.76 280.079 146.844 280.247 147.012C280.415 147.18 280.499 147.388 280.499 147.636C280.499 147.884 280.415 148.092 280.247 148.26C280.079 148.428 279.875 148.512 279.635 148.512ZM280.307 149.388V156H278.939V149.388H280.307ZM283.699 150.504V154.164C283.699 154.412 283.755 154.592 283.867 154.704C283.987 154.808 284.187 154.86 284.467 154.86H285.307V156H284.227C283.611 156 283.139 155.856 282.811 155.568C282.483 155.28 282.319 154.812 282.319 154.164V150.504H281.539V149.388H282.319V147.744H283.699V149.388H285.307V150.504H283.699ZM287.264 148.512C287.016 148.512 286.808 148.428 286.64 148.26C286.472 148.092 286.388 147.884 286.388 147.636C286.388 147.388 286.472 147.18 286.64 147.012C286.808 146.844 287.016 146.76 287.264 146.76C287.504 146.76 287.708 146.844 287.876 147.012C288.044 147.18 288.128 147.388 288.128 147.636C288.128 147.884 288.044 148.092 287.876 148.26C287.708 148.428 287.504 148.512 287.264 148.512ZM287.936 149.388V156H286.568V149.388H287.936ZM292.6 156.108C291.976 156.108 291.412 155.968 290.908 155.688C290.404 155.4 290.008 155 289.72 154.488C289.432 153.968 289.288 153.368 289.288 152.688C289.288 152.016 289.436 151.42 289.732 150.9C290.028 150.38 290.432 149.98 290.944 149.7C291.456 149.42 292.028 149.28 292.66 149.28C293.292 149.28 293.864 149.42 294.376 149.7C294.888 149.98 295.292 150.38 295.588 150.9C295.884 151.42 296.032 152.016 296.032 152.688C296.032 153.36 295.88 153.956 295.576 154.476C295.272 154.996 294.856 155.4 294.328 155.688C293.808 155.968 293.232 156.108 292.6 156.108ZM292.6 154.92C292.952 154.92 293.28 154.836 293.584 154.668C293.896 154.5 294.148 154.248 294.34 153.912C294.532 153.576 294.628 153.168 294.628 152.688C294.628 152.208 294.536 151.804 294.352 151.476C294.168 151.14 293.924 150.888 293.62 150.72C293.316 150.552 292.988 150.468 292.636 150.468C292.284 150.468 291.956 150.552 291.652 150.72C291.356 150.888 291.12 151.14 290.944 151.476C290.768 151.804 290.68 152.208 290.68 152.688C290.68 153.4 290.86 153.952 291.22 154.344C291.588 154.728 292.048 154.92 292.6 154.92ZM300.72 149.28C301.24 149.28 301.704 149.388 302.112 149.604C302.528 149.82 302.852 150.14 303.084 150.564C303.316 150.988 303.432 151.5 303.432 152.1V156H302.076V152.304C302.076 151.712 301.928 151.26 301.632 150.948C301.336 150.628 300.932 150.468 300.42 150.468C299.908 150.468 299.5 150.628 299.196 150.948C298.9 151.26 298.752 151.712 298.752 152.304V156H297.384V149.388H298.752V150.144C298.976 149.872 299.26 149.66 299.604 149.508C299.956 149.356 300.328 149.28 300.72 149.28ZM308.991 148.512C308.743 148.512 308.535 148.428 308.367 148.26C308.199 148.092 308.115 147.884 308.115 147.636C308.115 147.388 308.199 147.18 308.367 147.012C308.535 146.844 308.743 146.76 308.991 146.76C309.231 146.76 309.435 146.844 309.603 147.012C309.771 147.18 309.855 147.388 309.855 147.636C309.855 147.884 309.771 148.092 309.603 148.26C309.435 148.428 309.231 148.512 308.991 148.512ZM309.663 149.388V156H308.295V149.388H309.663ZM313.859 156.108C313.339 156.108 312.871 156.016 312.455 155.832C312.047 155.64 311.723 155.384 311.483 155.064C311.243 154.736 311.115 154.372 311.099 153.972H312.515C312.539 154.252 312.671 154.488 312.911 154.68C313.159 154.864 313.467 154.956 313.835 154.956C314.219 154.956 314.515 154.884 314.723 154.74C314.939 154.588 315.047 154.396 315.047 154.164C315.047 153.916 314.927 153.732 314.687 153.612C314.455 153.492 314.083 153.36 313.571 153.216C313.075 153.08 312.671 152.948 312.359 152.82C312.047 152.692 311.775 152.496 311.543 152.232C311.319 151.968 311.207 151.62 311.207 151.188C311.207 150.836 311.311 150.516 311.519 150.228C311.727 149.932 312.023 149.7 312.407 149.532C312.799 149.364 313.247 149.28 313.751 149.28C314.503 149.28 315.107 149.472 315.563 149.856C316.027 150.232 316.275 150.748 316.307 151.404H314.939C314.915 151.108 314.795 150.872 314.579 150.696C314.363 150.52 314.071 150.432 313.703 150.432C313.343 150.432 313.067 150.5 312.875 150.636C312.683 150.772 312.587 150.952 312.587 151.176C312.587 151.352 312.651 151.5 312.779 151.62C312.907 151.74 313.063 151.836 313.247 151.908C313.431 151.972 313.703 152.056 314.063 152.16C314.543 152.288 314.935 152.42 315.239 152.556C315.551 152.684 315.819 152.876 316.043 153.132C316.267 153.388 316.383 153.728 316.391 154.152C316.391 154.528 316.287 154.864 316.079 155.16C315.871 155.456 315.575 155.688 315.191 155.856C314.815 156.024 314.371 156.108 313.859 156.108ZM326.374 147.66V148.776H324.154V156H322.786V148.776H320.554V147.66H326.374ZM329.127 150.348C329.327 150.012 329.591 149.752 329.919 149.568C330.255 149.376 330.651 149.28 331.107 149.28V150.696H330.759C330.223 150.696 329.815 150.832 329.535 151.104C329.263 151.376 329.127 151.848 329.127 152.52V156H327.759V149.388H329.127V150.348ZM338.353 149.388V156H336.985V155.22C336.769 155.492 336.485 155.708 336.133 155.868C335.789 156.02 335.421 156.096 335.029 156.096C334.509 156.096 334.041 155.988 333.625 155.772C333.217 155.556 332.893 155.236 332.653 154.812C332.421 154.388 332.305 153.876 332.305 153.276V149.388H333.661V153.072C333.661 153.664 333.809 154.12 334.105 154.44C334.401 154.752 334.805 154.908 335.317 154.908C335.829 154.908 336.233 154.752 336.529 154.44C336.833 154.12 336.985 153.664 336.985 153.072V149.388H338.353ZM346.218 152.532C346.218 152.78 346.202 153.004 346.17 153.204H341.118C341.158 153.732 341.354 154.156 341.706 154.476C342.058 154.796 342.49 154.956 343.002 154.956C343.738 154.956 344.258 154.648 344.562 154.032H346.038C345.838 154.64 345.474 155.14 344.946 155.532C344.426 155.916 343.778 156.108 343.002 156.108C342.37 156.108 341.802 155.968 341.298 155.688C340.802 155.4 340.41 155 340.122 154.488C339.842 153.968 339.702 153.368 339.702 152.688C339.702 152.008 339.838 151.412 340.11 150.9C340.39 150.38 340.778 149.98 341.274 149.7C341.778 149.42 342.354 149.28 343.002 149.28C343.626 149.28 344.182 149.416 344.67 149.688C345.158 149.96 345.538 150.344 345.81 150.84C346.082 151.328 346.218 151.892 346.218 152.532ZM344.79 152.1C344.782 151.596 344.602 151.192 344.25 150.888C343.898 150.584 343.462 150.432 342.942 150.432C342.47 150.432 342.066 150.584 341.73 150.888C341.394 151.184 341.194 151.588 341.13 152.1H344.79ZM348.116 156.084C347.868 156.084 347.66 156 347.492 155.832C347.324 155.664 347.24 155.456 347.24 155.208C347.24 154.96 347.324 154.752 347.492 154.584C347.66 154.416 347.868 154.332 348.116 154.332C348.356 154.332 348.56 154.416 348.728 154.584C348.896 154.752 348.98 154.96 348.98 155.208C348.98 155.456 348.896 155.664 348.728 155.832C348.56 156 348.356 156.084 348.116 156.084ZM348.116 151.044C347.868 151.044 347.66 150.96 347.492 150.792C347.324 150.624 347.24 150.416 347.24 150.168C347.24 149.92 347.324 149.712 347.492 149.544C347.66 149.376 347.868 149.292 348.116 149.292C348.356 149.292 348.56 149.376 348.728 149.544C348.896 149.712 348.98 149.92 348.98 150.168C348.98 150.416 348.896 150.624 348.728 150.792C348.56 150.96 348.356 151.044 348.116 151.044ZM259.546 170.532C259.546 170.78 259.53 171.004 259.498 171.204H254.446C254.486 171.732 254.682 172.156 255.034 172.476C255.386 172.796 255.818 172.956 256.33 172.956C257.066 172.956 257.586 172.648 257.89 172.032H259.366C259.166 172.64 258.802 173.14 258.274 173.532C257.754 173.916 257.106 174.108 256.33 174.108C255.698 174.108 255.13 173.968 254.626 173.688C254.13 173.4 253.738 173 253.45 172.488C253.17 171.968 253.03 171.368 253.03 170.688C253.03 170.008 253.166 169.412 253.438 168.9C253.718 168.38 254.106 167.98 254.602 167.7C255.106 167.42 255.682 167.28 256.33 167.28C256.954 167.28 257.51 167.416 257.998 167.688C258.486 167.96 258.866 168.344 259.138 168.84C259.41 169.328 259.546 169.892 259.546 170.532ZM258.118 170.1C258.11 169.596 257.93 169.192 257.578 168.888C257.226 168.584 256.79 168.432 256.27 168.432C255.798 168.432 255.394 168.584 255.058 168.888C254.722 169.184 254.522 169.588 254.458 170.1H258.118ZM263.724 170.652L265.86 174H264.312L262.884 171.756L261.54 174H260.112L262.248 170.748L260.112 167.388H261.66L263.088 169.632L264.432 167.388H265.86L263.724 170.652ZM272.94 170.532C272.94 170.78 272.924 171.004 272.892 171.204H267.84C267.88 171.732 268.076 172.156 268.428 172.476C268.78 172.796 269.212 172.956 269.724 172.956C270.46 172.956 270.98 172.648 271.284 172.032H272.76C272.56 172.64 272.196 173.14 271.668 173.532C271.148 173.916 270.5 174.108 269.724 174.108C269.092 174.108 268.524 173.968 268.02 173.688C267.524 173.4 267.132 173 266.844 172.488C266.564 171.968 266.424 171.368 266.424 170.688C266.424 170.008 266.56 169.412 266.832 168.9C267.112 168.38 267.5 167.98 267.996 167.7C268.5 167.42 269.076 167.28 269.724 167.28C270.348 167.28 270.904 167.416 271.392 167.688C271.88 167.96 272.26 168.344 272.532 168.84C272.804 169.328 272.94 169.892 272.94 170.532ZM271.512 170.1C271.504 169.596 271.324 169.192 270.972 168.888C270.62 168.584 270.184 168.432 269.664 168.432C269.192 168.432 268.788 168.584 268.452 168.888C268.116 169.184 267.916 169.588 267.852 170.1H271.512ZM273.831 170.688C273.831 170.008 273.967 169.412 274.239 168.9C274.519 168.38 274.903 167.98 275.391 167.7C275.879 167.42 276.439 167.28 277.071 167.28C277.871 167.28 278.531 167.472 279.051 167.856C279.579 168.232 279.935 168.772 280.119 169.476H278.643C278.523 169.148 278.331 168.892 278.067 168.708C277.803 168.524 277.471 168.432 277.071 168.432C276.511 168.432 276.063 168.632 275.727 169.032C275.399 169.424 275.235 169.976 275.235 170.688C275.235 171.4 275.399 171.956 275.727 172.356C276.063 172.756 276.511 172.956 277.071 172.956C277.863 172.956 278.387 172.608 278.643 171.912H280.119C279.927 172.584 279.567 173.12 279.039 173.52C278.511 173.912 277.855 174.108 277.071 174.108C276.439 174.108 275.879 173.968 275.391 173.688C274.903 173.4 274.519 173 274.239 172.488C273.967 171.968 273.831 171.368 273.831 170.688ZM287.47 167.388V174H286.102V173.22C285.886 173.492 285.602 173.708 285.25 173.868C284.906 174.02 284.538 174.096 284.146 174.096C283.626 174.096 283.158 173.988 282.742 173.772C282.334 173.556 282.01 173.236 281.77 172.812C281.538 172.388 281.422 171.876 281.422 171.276V167.388H282.778V171.072C282.778 171.664 282.926 172.12 283.222 172.44C283.518 172.752 283.922 172.908 284.434 172.908C284.946 172.908 285.35 172.752 285.646 172.44C285.95 172.12 286.102 171.664 286.102 171.072V167.388H287.47ZM290.871 168.504V172.164C290.871 172.412 290.927 172.592 291.039 172.704C291.159 172.808 291.359 172.86 291.639 172.86H292.479V174H291.399C290.783 174 290.311 173.856 289.983 173.568C289.655 173.28 289.491 172.812 289.491 172.164V168.504H288.711V167.388H289.491V165.744H290.871V167.388H292.479V168.504H290.871ZM299.8 170.532C299.8 170.78 299.784 171.004 299.752 171.204H294.7C294.74 171.732 294.936 172.156 295.288 172.476C295.64 172.796 296.072 172.956 296.584 172.956C297.32 172.956 297.84 172.648 298.144 172.032H299.62C299.42 172.64 299.056 173.14 298.528 173.532C298.008 173.916 297.36 174.108 296.584 174.108C295.952 174.108 295.384 173.968 294.88 173.688C294.384 173.4 293.992 173 293.704 172.488C293.424 171.968 293.284 171.368 293.284 170.688C293.284 170.008 293.42 169.412 293.692 168.9C293.972 168.38 294.36 167.98 294.856 167.7C295.36 167.42 295.936 167.28 296.584 167.28C297.208 167.28 297.764 167.416 298.252 167.688C298.74 167.96 299.12 168.344 299.392 168.84C299.664 169.328 299.8 169.892 299.8 170.532ZM298.372 170.1C298.364 169.596 298.184 169.192 297.832 168.888C297.48 168.584 297.044 168.432 296.524 168.432C296.052 168.432 295.648 168.584 295.312 168.888C294.976 169.184 294.776 169.588 294.712 170.1H298.372ZM303.807 170.688C303.807 170.008 303.943 169.412 304.215 168.9C304.495 168.38 304.879 167.98 305.367 167.7C305.855 167.42 306.415 167.28 307.047 167.28C307.847 167.28 308.507 167.472 309.027 167.856C309.555 168.232 309.911 168.772 310.095 169.476H308.619C308.499 169.148 308.307 168.892 308.043 168.708C307.779 168.524 307.447 168.432 307.047 168.432C306.487 168.432 306.039 168.632 305.703 169.032C305.375 169.424 305.211 169.976 305.211 170.688C305.211 171.4 305.375 171.956 305.703 172.356C306.039 172.756 306.487 172.956 307.047 172.956C307.839 172.956 308.363 172.608 308.619 171.912H310.095C309.903 172.584 309.543 173.12 309.015 173.52C308.487 173.912 307.831 174.108 307.047 174.108C306.415 174.108 305.855 173.968 305.367 173.688C304.879 173.4 304.495 173 304.215 172.488C303.943 171.968 303.807 171.368 303.807 170.688ZM314.327 174.108C313.703 174.108 313.139 173.968 312.635 173.688C312.131 173.4 311.735 173 311.447 172.488C311.159 171.968 311.015 171.368 311.015 170.688C311.015 170.016 311.163 169.42 311.459 168.9C311.755 168.38 312.159 167.98 312.671 167.7C313.183 167.42 313.755 167.28 314.387 167.28C315.019 167.28 315.591 167.42 316.103 167.7C316.615 167.98 317.019 168.38 317.315 168.9C317.611 169.42 317.759 170.016 317.759 170.688C317.759 171.36 317.607 171.956 317.303 172.476C316.999 172.996 316.583 173.4 316.055 173.688C315.535 173.968 314.959 174.108 314.327 174.108ZM314.327 172.92C314.679 172.92 315.007 172.836 315.311 172.668C315.623 172.5 315.875 172.248 316.067 171.912C316.259 171.576 316.355 171.168 316.355 170.688C316.355 170.208 316.263 169.804 316.079 169.476C315.895 169.14 315.651 168.888 315.347 168.72C315.043 168.552 314.715 168.468 314.363 168.468C314.011 168.468 313.683 168.552 313.379 168.72C313.083 168.888 312.847 169.14 312.671 169.476C312.495 169.804 312.407 170.208 312.407 170.688C312.407 171.4 312.587 171.952 312.947 172.344C313.315 172.728 313.775 172.92 314.327 172.92ZM318.655 170.664C318.655 170 318.791 169.412 319.063 168.9C319.343 168.388 319.719 167.992 320.191 167.712C320.671 167.424 321.203 167.28 321.787 167.28C322.219 167.28 322.643 167.376 323.059 167.568C323.483 167.752 323.819 168 324.067 168.312V165.12H325.447V174H324.067V173.004C323.843 173.324 323.531 173.588 323.131 173.796C322.739 174.004 322.287 174.108 321.775 174.108C321.199 174.108 320.671 173.964 320.191 173.676C319.719 173.38 319.343 172.972 319.063 172.452C318.791 171.924 318.655 171.328 318.655 170.664ZM324.067 170.688C324.067 170.232 323.971 169.836 323.779 169.5C323.595 169.164 323.351 168.908 323.047 168.732C322.743 168.556 322.415 168.468 322.063 168.468C321.711 168.468 321.383 168.556 321.079 168.732C320.775 168.9 320.527 169.152 320.335 169.488C320.151 169.816 320.059 170.208 320.059 170.664C320.059 171.12 320.151 171.52 320.335 171.864C320.527 172.208 320.775 172.472 321.079 172.656C321.391 172.832 321.719 172.92 322.063 172.92C322.415 172.92 322.743 172.832 323.047 172.656C323.351 172.48 323.595 172.224 323.779 171.888C323.971 171.544 324.067 171.144 324.067 170.688ZM333.304 170.532C333.304 170.78 333.288 171.004 333.256 171.204H328.204C328.244 171.732 328.44 172.156 328.792 172.476C329.144 172.796 329.576 172.956 330.088 172.956C330.824 172.956 331.344 172.648 331.648 172.032H333.124C332.924 172.64 332.56 173.14 332.032 173.532C331.512 173.916 330.864 174.108 330.088 174.108C329.456 174.108 328.888 173.968 328.384 173.688C327.888 173.4 327.496 173 327.208 172.488C326.928 171.968 326.788 171.368 326.788 170.688C326.788 170.008 326.924 169.412 327.196 168.9C327.476 168.38 327.864 167.98 328.36 167.7C328.864 167.42 329.44 167.28 330.088 167.28C330.712 167.28 331.268 167.416 331.756 167.688C332.244 167.96 332.624 168.344 332.896 168.84C333.168 169.328 333.304 169.892 333.304 170.532ZM331.876 170.1C331.868 169.596 331.688 169.192 331.336 168.888C330.984 168.584 330.548 168.432 330.028 168.432C329.556 168.432 329.152 168.584 328.816 168.888C328.48 169.184 328.28 169.588 328.216 170.1H331.876ZM243.96 188.532C243.96 188.78 243.944 189.004 243.912 189.204H238.86C238.9 189.732 239.096 190.156 239.448 190.476C239.8 190.796 240.232 190.956 240.744 190.956C241.48 190.956 242 190.648 242.304 190.032H243.78C243.58 190.64 243.216 191.14 242.688 191.532C242.168 191.916 241.52 192.108 240.744 192.108C240.112 192.108 239.544 191.968 239.04 191.688C238.544 191.4 238.152 191 237.864 190.488C237.584 189.968 237.444 189.368 237.444 188.688C237.444 188.008 237.58 187.412 237.852 186.9C238.132 186.38 238.52 185.98 239.016 185.7C239.52 185.42 240.096 185.28 240.744 185.28C241.368 185.28 241.924 185.416 242.412 185.688C242.9 185.96 243.28 186.344 243.552 186.84C243.824 187.328 243.96 187.892 243.96 188.532ZM242.532 188.1C242.524 187.596 242.344 187.192 241.992 186.888C241.64 186.584 241.204 186.432 240.684 186.432C240.212 186.432 239.808 186.584 239.472 186.888C239.136 187.184 238.936 187.588 238.872 188.1H242.532ZM246.674 183.12V192H245.306V183.12H246.674ZM250.87 192.108C250.35 192.108 249.882 192.016 249.466 191.832C249.058 191.64 248.734 191.384 248.494 191.064C248.254 190.736 248.126 190.372 248.11 189.972H249.526C249.55 190.252 249.682 190.488 249.922 190.68C250.17 190.864 250.478 190.956 250.846 190.956C251.23 190.956 251.526 190.884 251.734 190.74C251.95 190.588 252.058 190.396 252.058 190.164C252.058 189.916 251.938 189.732 251.698 189.612C251.466 189.492 251.094 189.36 250.582 189.216C250.086 189.08 249.682 188.948 249.37 188.82C249.058 188.692 248.786 188.496 248.554 188.232C248.33 187.968 248.218 187.62 248.218 187.188C248.218 186.836 248.322 186.516 248.53 186.228C248.738 185.932 249.034 185.7 249.418 185.532C249.81 185.364 250.258 185.28 250.762 185.28C251.514 185.28 252.118 185.472 252.574 185.856C253.038 186.232 253.286 186.748 253.318 187.404H251.95C251.926 187.108 251.806 186.872 251.59 186.696C251.374 186.52 251.082 186.432 250.714 186.432C250.354 186.432 250.078 186.5 249.886 186.636C249.694 186.772 249.598 186.952 249.598 187.176C249.598 187.352 249.662 187.5 249.79 187.62C249.918 187.74 250.074 187.836 250.258 187.908C250.442 187.972 250.714 188.056 251.074 188.16C251.554 188.288 251.946 188.42 252.25 188.556C252.562 188.684 252.83 188.876 253.054 189.132C253.278 189.388 253.394 189.728 253.402 190.152C253.402 190.528 253.298 190.864 253.09 191.16C252.882 191.456 252.586 191.688 252.202 191.856C251.826 192.024 251.382 192.108 250.87 192.108ZM260.94 188.532C260.94 188.78 260.924 189.004 260.892 189.204H255.84C255.88 189.732 256.076 190.156 256.428 190.476C256.78 190.796 257.212 190.956 257.724 190.956C258.46 190.956 258.98 190.648 259.284 190.032H260.76C260.56 190.64 260.196 191.14 259.668 191.532C259.148 191.916 258.5 192.108 257.724 192.108C257.092 192.108 256.524 191.968 256.02 191.688C255.524 191.4 255.132 191 254.844 190.488C254.564 189.968 254.424 189.368 254.424 188.688C254.424 188.008 254.56 187.412 254.832 186.9C255.112 186.38 255.5 185.98 255.996 185.7C256.5 185.42 257.076 185.28 257.724 185.28C258.348 185.28 258.904 185.416 259.392 185.688C259.88 185.96 260.26 186.344 260.532 186.84C260.804 187.328 260.94 187.892 260.94 188.532ZM259.512 188.1C259.504 187.596 259.324 187.192 258.972 186.888C258.62 186.584 258.184 186.432 257.664 186.432C257.192 186.432 256.788 186.584 256.452 186.888C256.116 187.184 255.916 187.588 255.852 188.1H259.512ZM262.839 192.084C262.591 192.084 262.383 192 262.215 191.832C262.047 191.664 261.963 191.456 261.963 191.208C261.963 190.96 262.047 190.752 262.215 190.584C262.383 190.416 262.591 190.332 262.839 190.332C263.079 190.332 263.283 190.416 263.451 190.584C263.619 190.752 263.703 190.96 263.703 191.208C263.703 191.456 263.619 191.664 263.451 191.832C263.283 192 263.079 192.084 262.839 192.084ZM262.839 187.044C262.591 187.044 262.383 186.96 262.215 186.792C262.047 186.624 261.963 186.416 261.963 186.168C261.963 185.92 262.047 185.712 262.215 185.544C262.383 185.376 262.591 185.292 262.839 185.292C263.079 185.292 263.283 185.376 263.451 185.544C263.619 185.712 263.703 185.92 263.703 186.168C263.703 186.416 263.619 186.624 263.451 186.792C263.283 186.96 263.079 187.044 262.839 187.044ZM259.546 206.532C259.546 206.78 259.53 207.004 259.498 207.204H254.446C254.486 207.732 254.682 208.156 255.034 208.476C255.386 208.796 255.818 208.956 256.33 208.956C257.066 208.956 257.586 208.648 257.89 208.032H259.366C259.166 208.64 258.802 209.14 258.274 209.532C257.754 209.916 257.106 210.108 256.33 210.108C255.698 210.108 255.13 209.968 254.626 209.688C254.13 209.4 253.738 209 253.45 208.488C253.17 207.968 253.03 207.368 253.03 206.688C253.03 206.008 253.166 205.412 253.438 204.9C253.718 204.38 254.106 203.98 254.602 203.7C255.106 203.42 255.682 203.28 256.33 203.28C256.954 203.28 257.51 203.416 257.998 203.688C258.486 203.96 258.866 204.344 259.138 204.84C259.41 205.328 259.546 205.892 259.546 206.532ZM258.118 206.1C258.11 205.596 257.93 205.192 257.578 204.888C257.226 204.584 256.79 204.432 256.27 204.432C255.798 204.432 255.394 204.584 255.058 204.888C254.722 205.184 254.522 205.588 254.458 206.1H258.118ZM263.724 206.652L265.86 210H264.312L262.884 207.756L261.54 210H260.112L262.248 206.748L260.112 203.388H261.66L263.088 205.632L264.432 203.388H265.86L263.724 206.652ZM272.94 206.532C272.94 206.78 272.924 207.004 272.892 207.204H267.84C267.88 207.732 268.076 208.156 268.428 208.476C268.78 208.796 269.212 208.956 269.724 208.956C270.46 208.956 270.98 208.648 271.284 208.032H272.76C272.56 208.64 272.196 209.14 271.668 209.532C271.148 209.916 270.5 210.108 269.724 210.108C269.092 210.108 268.524 209.968 268.02 209.688C267.524 209.4 267.132 209 266.844 208.488C266.564 207.968 266.424 207.368 266.424 206.688C266.424 206.008 266.56 205.412 266.832 204.9C267.112 204.38 267.5 203.98 267.996 203.7C268.5 203.42 269.076 203.28 269.724 203.28C270.348 203.28 270.904 203.416 271.392 203.688C271.88 203.96 272.26 204.344 272.532 204.84C272.804 205.328 272.94 205.892 272.94 206.532ZM271.512 206.1C271.504 205.596 271.324 205.192 270.972 204.888C270.62 204.584 270.184 204.432 269.664 204.432C269.192 204.432 268.788 204.584 268.452 204.888C268.116 205.184 267.916 205.588 267.852 206.1H271.512ZM273.831 206.688C273.831 206.008 273.967 205.412 274.239 204.9C274.519 204.38 274.903 203.98 275.391 203.7C275.879 203.42 276.439 203.28 277.071 203.28C277.871 203.28 278.531 203.472 279.051 203.856C279.579 204.232 279.935 204.772 280.119 205.476H278.643C278.523 205.148 278.331 204.892 278.067 204.708C277.803 204.524 277.471 204.432 277.071 204.432C276.511 204.432 276.063 204.632 275.727 205.032C275.399 205.424 275.235 205.976 275.235 206.688C275.235 207.4 275.399 207.956 275.727 208.356C276.063 208.756 276.511 208.956 277.071 208.956C277.863 208.956 278.387 208.608 278.643 207.912H280.119C279.927 208.584 279.567 209.12 279.039 209.52C278.511 209.912 277.855 210.108 277.071 210.108C276.439 210.108 275.879 209.968 275.391 209.688C274.903 209.4 274.519 209 274.239 208.488C273.967 207.968 273.831 207.368 273.831 206.688ZM287.47 203.388V210H286.102V209.22C285.886 209.492 285.602 209.708 285.25 209.868C284.906 210.02 284.538 210.096 284.146 210.096C283.626 210.096 283.158 209.988 282.742 209.772C282.334 209.556 282.01 209.236 281.77 208.812C281.538 208.388 281.422 207.876 281.422 207.276V203.388H282.778V207.072C282.778 207.664 282.926 208.12 283.222 208.44C283.518 208.752 283.922 208.908 284.434 208.908C284.946 208.908 285.35 208.752 285.646 208.44C285.95 208.12 286.102 207.664 286.102 207.072V203.388H287.47ZM290.871 204.504V208.164C290.871 208.412 290.927 208.592 291.039 208.704C291.159 208.808 291.359 208.86 291.639 208.86H292.479V210H291.399C290.783 210 290.311 209.856 289.983 209.568C289.655 209.28 289.491 208.812 289.491 208.164V204.504H288.711V203.388H289.491V201.744H290.871V203.388H292.479V204.504H290.871ZM299.8 206.532C299.8 206.78 299.784 207.004 299.752 207.204H294.7C294.74 207.732 294.936 208.156 295.288 208.476C295.64 208.796 296.072 208.956 296.584 208.956C297.32 208.956 297.84 208.648 298.144 208.032H299.62C299.42 208.64 299.056 209.14 298.528 209.532C298.008 209.916 297.36 210.108 296.584 210.108C295.952 210.108 295.384 209.968 294.88 209.688C294.384 209.4 293.992 209 293.704 208.488C293.424 207.968 293.284 207.368 293.284 206.688C293.284 206.008 293.42 205.412 293.692 204.9C293.972 204.38 294.36 203.98 294.856 203.7C295.36 203.42 295.936 203.28 296.584 203.28C297.208 203.28 297.764 203.416 298.252 203.688C298.74 203.96 299.12 204.344 299.392 204.84C299.664 205.328 299.8 205.892 299.8 206.532ZM298.372 206.1C298.364 205.596 298.184 205.192 297.832 204.888C297.48 204.584 297.044 204.432 296.524 204.432C296.052 204.432 295.648 204.584 295.312 204.888C294.976 205.184 294.776 205.588 294.712 206.1H298.372ZM303.807 206.688C303.807 206.008 303.943 205.412 304.215 204.9C304.495 204.38 304.879 203.98 305.367 203.7C305.855 203.42 306.415 203.28 307.047 203.28C307.847 203.28 308.507 203.472 309.027 203.856C309.555 204.232 309.911 204.772 310.095 205.476H308.619C308.499 205.148 308.307 204.892 308.043 204.708C307.779 204.524 307.447 204.432 307.047 204.432C306.487 204.432 306.039 204.632 305.703 205.032C305.375 205.424 305.211 205.976 305.211 206.688C305.211 207.4 305.375 207.956 305.703 208.356C306.039 208.756 306.487 208.956 307.047 208.956C307.839 208.956 308.363 208.608 308.619 207.912H310.095C309.903 208.584 309.543 209.12 309.015 209.52C308.487 209.912 307.831 210.108 307.047 210.108C306.415 210.108 305.855 209.968 305.367 209.688C304.879 209.4 304.495 209 304.215 208.488C303.943 207.968 303.807 207.368 303.807 206.688ZM314.327 210.108C313.703 210.108 313.139 209.968 312.635 209.688C312.131 209.4 311.735 209 311.447 208.488C311.159 207.968 311.015 207.368 311.015 206.688C311.015 206.016 311.163 205.42 311.459 204.9C311.755 204.38 312.159 203.98 312.671 203.7C313.183 203.42 313.755 203.28 314.387 203.28C315.019 203.28 315.591 203.42 316.103 203.7C316.615 203.98 317.019 204.38 317.315 204.9C317.611 205.42 317.759 206.016 317.759 206.688C317.759 207.36 317.607 207.956 317.303 208.476C316.999 208.996 316.583 209.4 316.055 209.688C315.535 209.968 314.959 210.108 314.327 210.108ZM314.327 208.92C314.679 208.92 315.007 208.836 315.311 208.668C315.623 208.5 315.875 208.248 316.067 207.912C316.259 207.576 316.355 207.168 316.355 206.688C316.355 206.208 316.263 205.804 316.079 205.476C315.895 205.14 315.651 204.888 315.347 204.72C315.043 204.552 314.715 204.468 314.363 204.468C314.011 204.468 313.683 204.552 313.379 204.72C313.083 204.888 312.847 205.14 312.671 205.476C312.495 205.804 312.407 206.208 312.407 206.688C312.407 207.4 312.587 207.952 312.947 208.344C313.315 208.728 313.775 208.92 314.327 208.92ZM318.655 206.664C318.655 206 318.791 205.412 319.063 204.9C319.343 204.388 319.719 203.992 320.191 203.712C320.671 203.424 321.203 203.28 321.787 203.28C322.219 203.28 322.643 203.376 323.059 203.568C323.483 203.752 323.819 204 324.067 204.312V201.12H325.447V210H324.067V209.004C323.843 209.324 323.531 209.588 323.131 209.796C322.739 210.004 322.287 210.108 321.775 210.108C321.199 210.108 320.671 209.964 320.191 209.676C319.719 209.38 319.343 208.972 319.063 208.452C318.791 207.924 318.655 207.328 318.655 206.664ZM324.067 206.688C324.067 206.232 323.971 205.836 323.779 205.5C323.595 205.164 323.351 204.908 323.047 204.732C322.743 204.556 322.415 204.468 322.063 204.468C321.711 204.468 321.383 204.556 321.079 204.732C320.775 204.9 320.527 205.152 320.335 205.488C320.151 205.816 320.059 206.208 320.059 206.664C320.059 207.12 320.151 207.52 320.335 207.864C320.527 208.208 320.775 208.472 321.079 208.656C321.391 208.832 321.719 208.92 322.063 208.92C322.415 208.92 322.743 208.832 323.047 208.656C323.351 208.48 323.595 208.224 323.779 207.888C323.971 207.544 324.067 207.144 324.067 206.688ZM333.304 206.532C333.304 206.78 333.288 207.004 333.256 207.204H328.204C328.244 207.732 328.44 208.156 328.792 208.476C329.144 208.796 329.576 208.956 330.088 208.956C330.824 208.956 331.344 208.648 331.648 208.032H333.124C332.924 208.64 332.56 209.14 332.032 209.532C331.512 209.916 330.864 210.108 330.088 210.108C329.456 210.108 328.888 209.968 328.384 209.688C327.888 209.4 327.496 209 327.208 208.488C326.928 207.968 326.788 207.368 326.788 206.688C326.788 206.008 326.924 205.412 327.196 204.9C327.476 204.38 327.864 203.98 328.36 203.7C328.864 203.42 329.44 203.28 330.088 203.28C330.712 203.28 331.268 203.416 331.756 203.688C332.244 203.96 332.624 204.344 332.896 204.84C333.168 205.328 333.304 205.892 333.304 206.532ZM331.876 206.1C331.868 205.596 331.688 205.192 331.336 204.888C330.984 204.584 330.548 204.432 330.028 204.432C329.556 204.432 329.152 204.584 328.816 204.888C328.48 205.184 328.28 205.588 328.216 206.1H331.876Z" fill="white"/>
</svg>
