<svg width="276" height="116" viewBox="0 0 276 116" fill="none" xmlns="http://www.w3.org/2000/svg">
<path d="M97.5 28C104.404 28 110 22.4036 110 15.5V15.5C110 8.59644 104.404 3 97.5 3V3C90.5964 3 85 8.59644 85 15.5V15.5C85 22.4036 90.5964 28 97.5 28V28Z" fill="#5C7781"/>
<path d="M100 108C100 110.761 97.7614 113 95 113H5C2.23858 113 0 110.761 0 108V18C0 15.2386 2.23858 13 5 13H70C72.7614 13 75 15.2386 75 18V33C75 35.7614 77.2386 38 80 38H95C97.7614 38 100 40.2386 100 43V108Z" fill="#9BBBC6"/>
<path d="M160.76 47.088C163.277 47.5573 165.347 48.816 166.968 50.864C168.589 52.912 169.4 55.2587 169.4 57.904C169.4 60.2933 168.803 62.4053 167.608 64.24C166.456 66.032 164.771 67.44 162.552 68.464C160.333 69.488 157.709 70 154.68 70H135.416V25.328H153.848C156.877 25.328 159.48 25.8187 161.656 26.8C163.875 27.7813 165.539 29.1467 166.648 30.896C167.8 32.6453 168.376 34.6293 168.376 36.848C168.376 39.4507 167.672 41.6267 166.264 43.376C164.899 45.1253 163.064 46.3627 160.76 47.088ZM144.376 43.76H152.568C154.701 43.76 156.344 43.2907 157.496 42.352C158.648 41.3707 159.224 39.984 159.224 38.192C159.224 36.4 158.648 35.0133 157.496 34.032C156.344 33.0507 154.701 32.56 152.568 32.56H144.376V43.76ZM153.4 62.704C155.576 62.704 157.261 62.192 158.456 61.168C159.693 60.144 160.312 58.6933 160.312 56.816C160.312 54.896 159.672 53.4027 158.392 52.336C157.112 51.2267 155.384 50.672 153.208 50.672H144.376V62.704H153.4ZM210.461 34.544L188.509 86.768H178.973L186.653 69.104L172.445 34.544H182.493L191.645 59.312L200.925 34.544H210.461ZM225.723 41.904V59.056C225.723 60.2507 226 61.1253 226.555 61.68C227.152 62.192 228.134 62.448 229.499 62.448H233.659V70H228.027C220.475 70 216.699 66.3307 216.699 58.992V41.904H212.475V34.544H216.699V25.776H225.723V34.544H233.659V41.904H225.723ZM273.064 51.504C273.064 52.784 272.978 53.936 272.808 54.96H246.888C247.101 57.52 247.997 59.5253 249.576 60.976C251.154 62.4267 253.096 63.152 255.4 63.152C258.728 63.152 261.096 61.7227 262.504 58.864H272.168C271.144 62.2773 269.181 65.0933 266.28 67.312C263.378 69.488 259.816 70.576 255.592 70.576C252.178 70.576 249.106 69.8293 246.376 68.336C243.688 66.8 241.576 64.6453 240.04 61.872C238.546 59.0987 237.799 55.8987 237.799 52.272C237.799 48.6027 238.546 45.3813 240.04 42.608C241.533 39.8347 243.624 37.7013 246.312 36.208C249 34.7147 252.093 33.968 255.592 33.968C258.962 33.968 261.97 34.6933 264.616 36.144C267.304 37.5947 269.373 39.664 270.824 42.352C272.317 44.9973 273.064 48.048 273.064 51.504ZM263.784 48.944C263.741 46.64 262.909 44.8053 261.288 43.44C259.666 42.032 257.682 41.328 255.336 41.328C253.117 41.328 251.24 42.0107 249.704 43.376C248.21 44.6987 247.293 46.5547 246.952 48.944H263.784Z" fill="#9BBBC6"/>
<path d="M138.44 106.168C137.272 106.168 136.216 105.968 135.272 105.568C134.344 105.168 133.608 104.592 133.064 103.84C132.52 103.088 132.24 102.2 132.224 101.176H135.824C135.872 101.864 136.112 102.408 136.544 102.808C136.992 103.208 137.6 103.408 138.368 103.408C139.152 103.408 139.768 103.224 140.216 102.856C140.664 102.472 140.888 101.976 140.888 101.368C140.888 100.872 140.736 100.464 140.432 100.144C140.128 99.824 139.744 99.576 139.28 99.4C138.832 99.208 138.208 99 137.408 98.776C136.32 98.456 135.432 98.144 134.744 97.84C134.072 97.52 133.488 97.048 132.992 96.424C132.512 95.784 132.272 94.936 132.272 93.88C132.272 92.888 132.52 92.024 133.016 91.288C133.512 90.552 134.208 89.992 135.104 89.608C136 89.208 137.024 89.008 138.176 89.008C139.904 89.008 141.304 89.432 142.376 90.28C143.464 91.112 144.064 92.28 144.176 93.784H140.48C140.448 93.208 140.2 92.736 139.736 92.368C139.288 91.984 138.688 91.792 137.936 91.792C137.28 91.792 136.752 91.96 136.352 92.296C135.968 92.632 135.776 93.12 135.776 93.76C135.776 94.208 135.92 94.584 136.208 94.888C136.512 95.176 136.88 95.416 137.312 95.608C137.76 95.784 138.384 95.992 139.184 96.232C140.272 96.552 141.16 96.872 141.848 97.192C142.536 97.512 143.128 97.992 143.624 98.632C144.12 99.272 144.368 100.112 144.368 101.152C144.368 102.048 144.136 102.88 143.672 103.648C143.208 104.416 142.528 105.032 141.632 105.496C140.736 105.944 139.672 106.168 138.44 106.168ZM148.985 91.12C148.393 91.12 147.897 90.936 147.497 90.568C147.113 90.184 146.921 89.712 146.921 89.152C146.921 88.592 147.113 88.128 147.497 87.76C147.897 87.376 148.393 87.184 148.985 87.184C149.577 87.184 150.065 87.376 150.449 87.76C150.849 88.128 151.049 88.592 151.049 89.152C151.049 89.712 150.849 90.184 150.449 90.568C150.065 90.936 149.577 91.12 148.985 91.12ZM150.641 92.704V106H147.281V92.704H150.641ZM157.033 103.24H162.961V106H153.217V103.288L159.025 95.464H153.241V92.704H162.889V95.416L157.033 103.24ZM177.922 99.064C177.922 99.544 177.89 99.976 177.826 100.36H168.106C168.186 101.32 168.522 102.072 169.114 102.616C169.706 103.16 170.434 103.432 171.298 103.432C172.546 103.432 173.434 102.896 173.962 101.824H177.586C177.202 103.104 176.466 104.16 175.378 104.992C174.29 105.808 172.954 106.216 171.37 106.216C170.09 106.216 168.938 105.936 167.914 105.376C166.906 104.8 166.114 103.992 165.538 102.952C164.978 101.912 164.698 100.712 164.698 99.352C164.698 97.976 164.978 96.768 165.538 95.728C166.098 94.688 166.882 93.888 167.89 93.328C168.898 92.768 170.058 92.488 171.37 92.488C172.634 92.488 173.762 92.76 174.754 93.304C175.762 93.848 176.538 94.624 177.082 95.632C177.642 96.624 177.922 97.768 177.922 99.064ZM174.442 98.104C174.426 97.24 174.114 96.552 173.506 96.04C172.898 95.512 172.154 95.248 171.274 95.248C170.442 95.248 169.738 95.504 169.162 96.016C168.602 96.512 168.258 97.208 168.13 98.104H174.442ZM179.511 99.304C179.511 97.96 179.775 96.768 180.303 95.728C180.847 94.688 181.583 93.888 182.511 93.328C183.439 92.768 184.471 92.488 185.607 92.488C186.471 92.488 187.295 92.68 188.079 93.064C188.863 93.432 189.487 93.928 189.951 94.552V88.24H193.359V106H189.951V104.032C189.535 104.688 188.951 105.216 188.199 105.616C187.447 106.016 186.575 106.216 185.583 106.216C184.463 106.216 183.439 105.928 182.511 105.352C181.583 104.776 180.847 103.968 180.303 102.928C179.775 101.872 179.511 100.664 179.511 99.304ZM189.975 99.352C189.975 98.536 189.815 97.84 189.495 97.264C189.175 96.672 188.743 96.224 188.199 95.92C187.655 95.6 187.071 95.44 186.447 95.44C185.823 95.44 185.247 95.592 184.719 95.896C184.191 96.2 183.759 96.648 183.423 97.24C183.103 97.816 182.943 98.504 182.943 99.304C182.943 100.104 183.103 100.808 183.423 101.416C183.759 102.008 184.191 102.464 184.719 102.784C185.263 103.104 185.839 103.264 186.447 103.264C187.071 103.264 187.655 103.112 188.199 102.808C188.743 102.488 189.175 102.04 189.495 101.464C189.815 100.872 189.975 100.168 189.975 99.352Z" fill="#5C7781"/>
</svg>
