<svg width="352" height="170" viewBox="0 0 352 170" fill="none" xmlns="http://www.w3.org/2000/svg">
<rect width="352" height="170" rx="20" fill="#9BBBC6"/>
<path d="M31.26 27.2V25.54H35.02V40H33.18V27.2H31.26Z" fill="#FAFAFA"/>
<path d="M17.532 58.04V56.878H20.164V67H18.876V58.04H17.532ZM30.2988 67L28.4788 64.144L26.7288 67H25.3988L27.8768 63.192L25.3988 59.328H26.8408L28.6608 62.17L30.3968 59.328H31.7268L29.2628 63.122L31.7408 67H30.2988ZM36.3624 65.978C37.5478 65.026 38.4764 64.2467 39.1484 63.64C39.8204 63.024 40.3851 62.3847 40.8424 61.722C41.3091 61.05 41.5424 60.392 41.5424 59.748C41.5424 59.1413 41.3931 58.6653 41.0944 58.32C40.8051 57.9653 40.3338 57.788 39.6804 57.788C39.0458 57.788 38.5511 57.9887 38.1964 58.39C37.8511 58.782 37.6644 59.3093 37.6364 59.972H36.4044C36.4418 58.9267 36.7591 58.1193 37.3564 57.55C37.9538 56.9807 38.7238 56.696 39.6664 56.696C40.6278 56.696 41.3884 56.962 41.9484 57.494C42.5178 58.026 42.8024 58.7587 42.8024 59.692C42.8024 60.4667 42.5691 61.2227 42.1024 61.96C41.6451 62.688 41.1224 63.332 40.5344 63.892C39.9464 64.4427 39.1951 65.0867 38.2804 65.824H43.0964V66.888H36.3624V65.978Z" fill="#FAFAFA"/>
<path d="M49.23 52.56H45.72V54.84C45.8733 54.6267 46.1 54.4533 46.4 54.32C46.7 54.18 47.0233 54.11 47.37 54.11C47.9233 54.11 48.3733 54.2267 48.72 54.46C49.0667 54.6867 49.3133 54.9833 49.46 55.35C49.6133 55.71 49.69 56.0933 49.69 56.5C49.69 56.98 49.6 57.41 49.42 57.79C49.24 58.17 48.9633 58.47 48.59 58.69C48.2233 58.91 47.7667 59.02 47.22 59.02C46.52 59.02 45.9533 58.84 45.52 58.48C45.0867 58.12 44.8233 57.64 44.73 57.04H45.62C45.7067 57.42 45.89 57.7167 46.17 57.93C46.45 58.1433 46.8033 58.25 47.23 58.25C47.7567 58.25 48.1533 58.0933 48.42 57.78C48.6867 57.46 48.82 57.04 48.82 56.52C48.82 56 48.6867 55.6 48.42 55.32C48.1533 55.0333 47.76 54.89 47.24 54.89C46.8867 54.89 46.5767 54.9767 46.31 55.15C46.05 55.3167 45.86 55.5467 45.74 55.84H44.88V51.76H49.23V52.56Z" fill="#FAFAFA"/>
<path d="M61.858 62.422H58.876V65.446H57.686V62.422H54.718V61.344H57.686V58.306H58.876V61.344H61.858V62.422Z" fill="#FAFAFA"/>
<path d="M80.26 27.2V25.54H84.02V40H82.18V27.2H80.26Z" fill="#FAFAFA"/>
<path d="M66.532 58.04V56.878H69.164V67H67.876V58.04H66.532ZM79.2988 67L77.4788 64.144L75.7288 67H74.3988L76.8768 63.192L74.3988 59.328H75.8408L77.6608 62.17L79.3968 59.328H80.7268L78.2628 63.122L80.7408 67H79.2988ZM85.3624 65.978C86.5478 65.026 87.4764 64.2467 88.1484 63.64C88.8204 63.024 89.3851 62.3847 89.8424 61.722C90.3091 61.05 90.5424 60.392 90.5424 59.748C90.5424 59.1413 90.3931 58.6653 90.0944 58.32C89.8051 57.9653 89.3338 57.788 88.6804 57.788C88.0458 57.788 87.5511 57.9887 87.1964 58.39C86.8511 58.782 86.6644 59.3093 86.6364 59.972H85.4044C85.4418 58.9267 85.7591 58.1193 86.3564 57.55C86.9538 56.9807 87.7238 56.696 88.6664 56.696C89.6278 56.696 90.3884 56.962 90.9484 57.494C91.5178 58.026 91.8024 58.7587 91.8024 59.692C91.8024 60.4667 91.5691 61.2227 91.1024 61.96C90.6451 62.688 90.1224 63.332 89.5344 63.892C88.9464 64.4427 88.1951 65.0867 87.2804 65.824H92.0964V66.888H85.3624V65.978Z" fill="#FAFAFA"/>
<path d="M93.4 57.39V56.7L96.91 51.84H98V56.6H99V57.39H98V59H97.1V57.39H93.4ZM97.14 52.79L94.45 56.6H97.14V52.79Z" fill="#FAFAFA"/>
<path d="M110.858 62.422H107.876V65.446H106.686V62.422H103.718V61.344H106.686V58.306H107.876V61.344H110.858V62.422Z" fill="#FAFAFA"/>
<path d="M128.74 32.62C128.74 30.3267 129.113 28.54 129.86 27.26C130.607 25.9667 131.913 25.32 133.78 25.32C135.633 25.32 136.933 25.9667 137.68 27.26C138.427 28.54 138.8 30.3267 138.8 32.62C138.8 34.9533 138.427 36.7667 137.68 38.06C136.933 39.3533 135.633 40 133.78 40C131.913 40 130.607 39.3533 129.86 38.06C129.113 36.7667 128.74 34.9533 128.74 32.62ZM137 32.62C137 31.46 136.92 30.48 136.76 29.68C136.613 28.8667 136.3 28.2133 135.82 27.72C135.353 27.2267 134.673 26.98 133.78 26.98C132.873 26.98 132.18 27.2267 131.7 27.72C131.233 28.2133 130.92 28.8667 130.76 29.68C130.613 30.48 130.54 31.46 130.54 32.62C130.54 33.82 130.613 34.8267 130.76 35.64C130.92 36.4533 131.233 37.1067 131.7 37.6C132.18 38.0933 132.873 38.34 133.78 38.34C134.673 38.34 135.353 38.0933 135.82 37.6C136.3 37.1067 136.613 36.4533 136.76 35.64C136.92 34.8267 137 33.82 137 32.62Z" fill="#FAFAFA"/>
<path d="M115.868 61.834C115.868 60.2287 116.129 58.978 116.652 58.082C117.175 57.1767 118.089 56.724 119.396 56.724C120.693 56.724 121.603 57.1767 122.126 58.082C122.649 58.978 122.91 60.2287 122.91 61.834C122.91 63.4673 122.649 64.7367 122.126 65.642C121.603 66.5473 120.693 67 119.396 67C118.089 67 117.175 66.5473 116.652 65.642C116.129 64.7367 115.868 63.4673 115.868 61.834ZM121.65 61.834C121.65 61.022 121.594 60.336 121.482 59.776C121.379 59.2067 121.16 58.7493 120.824 58.404C120.497 58.0587 120.021 57.886 119.396 57.886C118.761 57.886 118.276 58.0587 117.94 58.404C117.613 58.7493 117.394 59.2067 117.282 59.776C117.179 60.336 117.128 61.022 117.128 61.834C117.128 62.674 117.179 63.3787 117.282 63.948C117.394 64.5173 117.613 64.9747 117.94 65.32C118.276 65.6653 118.761 65.838 119.396 65.838C120.021 65.838 120.497 65.6653 120.824 65.32C121.16 64.9747 121.379 64.5173 121.482 63.948C121.594 63.3787 121.65 62.674 121.65 61.834ZM132.605 67L130.785 64.144L129.035 67H127.705L130.183 63.192L127.705 59.328H129.147L130.967 62.17L132.703 59.328H134.033L131.569 63.122L134.047 67H132.605ZM138.669 65.978C139.854 65.026 140.783 64.2467 141.455 63.64C142.127 63.024 142.692 62.3847 143.149 61.722C143.616 61.05 143.849 60.392 143.849 59.748C143.849 59.1413 143.7 58.6653 143.401 58.32C143.112 57.9653 142.64 57.788 141.987 57.788C141.352 57.788 140.858 57.9887 140.503 58.39C140.158 58.782 139.971 59.3093 139.943 59.972H138.711C138.748 58.9267 139.066 58.1193 139.663 57.55C140.26 56.9807 141.03 56.696 141.973 56.696C142.934 56.696 143.695 56.962 144.255 57.494C144.824 58.026 145.109 58.7587 145.109 59.692C145.109 60.4667 144.876 61.2227 144.409 61.96C143.952 62.688 143.429 63.332 142.841 63.892C142.253 64.4427 141.502 65.0867 140.587 65.824H145.403V66.888H138.669V65.978Z" fill="#FAFAFA"/>
<path d="M147.6 53.59C147.647 52.9767 147.883 52.4967 148.31 52.15C148.737 51.8033 149.29 51.63 149.97 51.63C150.423 51.63 150.813 51.7133 151.14 51.88C151.473 52.04 151.723 52.26 151.89 52.54C152.063 52.82 152.15 53.1367 152.15 53.49C152.15 53.9033 152.03 54.26 151.79 54.56C151.557 54.86 151.25 55.0533 150.87 55.14V55.19C151.303 55.2967 151.647 55.5067 151.9 55.82C152.153 56.1333 152.28 56.5433 152.28 57.05C152.28 57.43 152.193 57.7733 152.02 58.08C151.847 58.38 151.587 58.6167 151.24 58.79C150.893 58.9633 150.477 59.05 149.99 59.05C149.283 59.05 148.703 58.8667 148.25 58.5C147.797 58.1267 147.543 57.6 147.49 56.92H148.37C148.417 57.32 148.58 57.6467 148.86 57.9C149.14 58.1533 149.513 58.28 149.98 58.28C150.447 58.28 150.8 58.16 151.04 57.92C151.287 57.6733 151.41 57.3567 151.41 56.97C151.41 56.47 151.243 56.11 150.91 55.89C150.577 55.67 150.073 55.56 149.4 55.56H149.17V54.8H149.41C150.023 54.7933 150.487 54.6933 150.8 54.5C151.113 54.3 151.27 53.9933 151.27 53.58C151.27 53.2267 151.153 52.9433 150.92 52.73C150.693 52.5167 150.367 52.41 149.94 52.41C149.527 52.41 149.193 52.5167 148.94 52.73C148.687 52.9433 148.537 53.23 148.49 53.59H147.6Z" fill="#FAFAFA"/>
<path d="M163.858 62.422H160.876V65.446H159.686V62.422H156.718V61.344H159.686V58.306H160.876V61.344H163.858V62.422Z" fill="#FAFAFA"/>
<path d="M181.76 27.2V25.54H185.52V40H183.68V27.2H181.76Z" fill="#FAFAFA"/>
<path d="M168.532 58.04V56.878H171.164V67H169.876V58.04H168.532ZM181.299 67L179.479 64.144L177.729 67H176.399L178.877 63.192L176.399 59.328H177.841L179.661 62.17L181.397 59.328H182.727L180.263 63.122L182.741 67H181.299ZM187.362 65.978C188.548 65.026 189.476 64.2467 190.148 63.64C190.82 63.024 191.385 62.3847 191.842 61.722C192.309 61.05 192.542 60.392 192.542 59.748C192.542 59.1413 192.393 58.6653 192.094 58.32C191.805 57.9653 191.334 57.788 190.68 57.788C190.046 57.788 189.551 57.9887 189.196 58.39C188.851 58.782 188.664 59.3093 188.636 59.972H187.404C187.442 58.9267 187.759 58.1193 188.356 57.55C188.954 56.9807 189.724 56.696 190.666 56.696C191.628 56.696 192.388 56.962 192.948 57.494C193.518 58.026 193.802 58.7587 193.802 59.692C193.802 60.4667 193.569 61.2227 193.102 61.96C192.645 62.688 192.122 63.332 191.534 63.892C190.946 64.4427 190.195 65.0867 189.28 65.824H194.096V66.888H187.362V65.978Z" fill="#FAFAFA"/>
<path d="M195.51 58.27C196.357 57.59 197.02 57.0333 197.5 56.6C197.98 56.16 198.383 55.7033 198.71 55.23C199.043 54.75 199.21 54.28 199.21 53.82C199.21 53.3867 199.103 53.0467 198.89 52.8C198.683 52.5467 198.347 52.42 197.88 52.42C197.427 52.42 197.073 52.5633 196.82 52.85C196.573 53.13 196.44 53.5067 196.42 53.98H195.54C195.567 53.2333 195.793 52.6567 196.22 52.25C196.647 51.8433 197.197 51.64 197.87 51.64C198.557 51.64 199.1 51.83 199.5 52.21C199.907 52.59 200.11 53.1133 200.11 53.78C200.11 54.3333 199.943 54.8733 199.61 55.4C199.283 55.92 198.91 56.38 198.49 56.78C198.07 57.1733 197.533 57.6333 196.88 58.16H200.32V58.92H195.51V58.27Z" fill="#FAFAFA"/>
<path d="M211.858 62.422H208.876V65.446H207.686V62.422H204.718V61.344H207.686V58.306H208.876V61.344H211.858V62.422Z" fill="#FAFAFA"/>
<path d="M228.74 32.62C228.74 30.3267 229.113 28.54 229.86 27.26C230.607 25.9667 231.913 25.32 233.78 25.32C235.633 25.32 236.933 25.9667 237.68 27.26C238.427 28.54 238.8 30.3267 238.8 32.62C238.8 34.9533 238.427 36.7667 237.68 38.06C236.933 39.3533 235.633 40 233.78 40C231.913 40 230.607 39.3533 229.86 38.06C229.113 36.7667 228.74 34.9533 228.74 32.62ZM237 32.62C237 31.46 236.92 30.48 236.76 29.68C236.613 28.8667 236.3 28.2133 235.82 27.72C235.353 27.2267 234.673 26.98 233.78 26.98C232.873 26.98 232.18 27.2267 231.7 27.72C231.233 28.2133 230.92 28.8667 230.76 29.68C230.613 30.48 230.54 31.46 230.54 32.62C230.54 33.82 230.613 34.8267 230.76 35.64C230.92 36.4533 231.233 37.1067 231.7 37.6C232.18 38.0933 232.873 38.34 233.78 38.34C234.673 38.34 235.353 38.0933 235.82 37.6C236.3 37.1067 236.613 36.4533 236.76 35.64C236.92 34.8267 237 33.82 237 32.62Z" fill="#FAFAFA"/>
<path d="M216.868 61.834C216.868 60.2287 217.129 58.978 217.652 58.082C218.175 57.1767 219.089 56.724 220.396 56.724C221.693 56.724 222.603 57.1767 223.126 58.082C223.649 58.978 223.91 60.2287 223.91 61.834C223.91 63.4673 223.649 64.7367 223.126 65.642C222.603 66.5473 221.693 67 220.396 67C219.089 67 218.175 66.5473 217.652 65.642C217.129 64.7367 216.868 63.4673 216.868 61.834ZM222.65 61.834C222.65 61.022 222.594 60.336 222.482 59.776C222.379 59.2067 222.16 58.7493 221.824 58.404C221.497 58.0587 221.021 57.886 220.396 57.886C219.761 57.886 219.276 58.0587 218.94 58.404C218.613 58.7493 218.394 59.2067 218.282 59.776C218.179 60.336 218.128 61.022 218.128 61.834C218.128 62.674 218.179 63.3787 218.282 63.948C218.394 64.5173 218.613 64.9747 218.94 65.32C219.276 65.6653 219.761 65.838 220.396 65.838C221.021 65.838 221.497 65.6653 221.824 65.32C222.16 64.9747 222.379 64.5173 222.482 63.948C222.594 63.3787 222.65 62.674 222.65 61.834ZM233.605 67L231.785 64.144L230.035 67H228.705L231.183 63.192L228.705 59.328H230.147L231.967 62.17L233.703 59.328H235.033L232.569 63.122L235.047 67H233.605ZM239.669 65.978C240.854 65.026 241.783 64.2467 242.455 63.64C243.127 63.024 243.692 62.3847 244.149 61.722C244.616 61.05 244.849 60.392 244.849 59.748C244.849 59.1413 244.7 58.6653 244.401 58.32C244.112 57.9653 243.64 57.788 242.987 57.788C242.352 57.788 241.858 57.9887 241.503 58.39C241.158 58.782 240.971 59.3093 240.943 59.972H239.711C239.748 58.9267 240.066 58.1193 240.663 57.55C241.26 56.9807 242.03 56.696 242.973 56.696C243.934 56.696 244.695 56.962 245.255 57.494C245.824 58.026 246.109 58.7587 246.109 59.692C246.109 60.4667 245.876 61.2227 245.409 61.96C244.952 62.688 244.429 63.332 243.841 63.892C243.253 64.4427 242.502 65.0867 241.587 65.824H246.403V66.888H239.669V65.978Z" fill="#FAFAFA"/>
<path d="M248.38 52.6V51.77H250.26V59H249.34V52.6H248.38Z" fill="#FAFAFA"/>
<path d="M262.858 62.422H259.876V65.446H258.686V62.422H255.718V61.344H258.686V58.306H259.876V61.344H262.858V62.422Z" fill="#FAFAFA"/>
<path d="M281.26 27.2V25.54H285.02V40H283.18V27.2H281.26Z" fill="#FAFAFA"/>
<path d="M267.532 58.04V56.878H270.164V67H268.876V58.04H267.532ZM280.299 67L278.479 64.144L276.729 67H275.399L277.877 63.192L275.399 59.328H276.841L278.661 62.17L280.397 59.328H281.727L279.263 63.122L281.741 67H280.299ZM286.362 65.978C287.548 65.026 288.476 64.2467 289.148 63.64C289.82 63.024 290.385 62.3847 290.842 61.722C291.309 61.05 291.542 60.392 291.542 59.748C291.542 59.1413 291.393 58.6653 291.094 58.32C290.805 57.9653 290.334 57.788 289.68 57.788C289.046 57.788 288.551 57.9887 288.196 58.39C287.851 58.782 287.664 59.3093 287.636 59.972H286.404C286.442 58.9267 286.759 58.1193 287.356 57.55C287.954 56.9807 288.724 56.696 289.666 56.696C290.628 56.696 291.388 56.962 291.948 57.494C292.518 58.026 292.802 58.7587 292.802 59.692C292.802 60.4667 292.569 61.2227 292.102 61.96C291.645 62.688 291.122 63.332 290.534 63.892C289.946 64.4427 289.195 65.0867 288.28 65.824H293.096V66.888H286.362V65.978Z" fill="#FAFAFA"/>
<path d="M294.62 55.31C294.62 54.1633 294.807 53.27 295.18 52.63C295.553 51.9833 296.207 51.66 297.14 51.66C298.067 51.66 298.717 51.9833 299.09 52.63C299.463 53.27 299.65 54.1633 299.65 55.31C299.65 56.4767 299.463 57.3833 299.09 58.03C298.717 58.6767 298.067 59 297.14 59C296.207 59 295.553 58.6767 295.18 58.03C294.807 57.3833 294.62 56.4767 294.62 55.31ZM298.75 55.31C298.75 54.73 298.71 54.24 298.63 53.84C298.557 53.4333 298.4 53.1067 298.16 52.86C297.927 52.6133 297.587 52.49 297.14 52.49C296.687 52.49 296.34 52.6133 296.1 52.86C295.867 53.1067 295.71 53.4333 295.63 53.84C295.557 54.24 295.52 54.73 295.52 55.31C295.52 55.91 295.557 56.4133 295.63 56.82C295.71 57.2267 295.867 57.5533 296.1 57.8C296.34 58.0467 296.687 58.17 297.14 58.17C297.587 58.17 297.927 58.0467 298.16 57.8C298.4 57.5533 298.557 57.2267 298.63 56.82C298.71 56.4133 298.75 55.91 298.75 55.31Z" fill="#FAFAFA"/>
<path d="M312.194 59.832V60.91H304.914V59.832H312.194ZM312.194 62.842V63.92H304.914V62.842H312.194Z" fill="#FAFAFA"/>
<path d="M324.322 57.984H319.408V61.176C319.623 60.8773 319.94 60.6347 320.36 60.448C320.78 60.252 321.233 60.154 321.718 60.154C322.493 60.154 323.123 60.3173 323.608 60.644C324.093 60.9613 324.439 61.3767 324.644 61.89C324.859 62.394 324.966 62.9307 324.966 63.5C324.966 64.172 324.84 64.774 324.588 65.306C324.336 65.838 323.949 66.258 323.426 66.566C322.913 66.874 322.273 67.028 321.508 67.028C320.528 67.028 319.735 66.776 319.128 66.272C318.521 65.768 318.153 65.096 318.022 64.256H319.268C319.389 64.788 319.646 65.2033 320.038 65.502C320.43 65.8007 320.925 65.95 321.522 65.95C322.259 65.95 322.815 65.7307 323.188 65.292C323.561 64.844 323.748 64.256 323.748 63.528C323.748 62.8 323.561 62.24 323.188 61.848C322.815 61.4467 322.264 61.246 321.536 61.246C321.041 61.246 320.607 61.3673 320.234 61.61C319.87 61.8433 319.604 62.1653 319.436 62.576H318.232V56.864H324.322V57.984ZM326.631 59.426C326.696 58.5673 327.028 57.8953 327.625 57.41C328.222 56.9247 328.997 56.682 329.949 56.682C330.584 56.682 331.13 56.7987 331.587 57.032C332.054 57.256 332.404 57.564 332.637 57.956C332.88 58.348 333.001 58.7913 333.001 59.286C333.001 59.8647 332.833 60.364 332.497 60.784C332.17 61.204 331.741 61.4747 331.209 61.596V61.666C331.816 61.8153 332.296 62.1093 332.651 62.548C333.006 62.9867 333.183 63.5607 333.183 64.27C333.183 64.802 333.062 65.2827 332.819 65.712C332.576 66.132 332.212 66.4633 331.727 66.706C331.242 66.9487 330.658 67.07 329.977 67.07C328.988 67.07 328.176 66.8133 327.541 66.3C326.906 65.7773 326.552 65.04 326.477 64.088H327.709C327.774 64.648 328.003 65.1053 328.395 65.46C328.787 65.8147 329.31 65.992 329.963 65.992C330.616 65.992 331.111 65.824 331.447 65.488C331.792 65.1427 331.965 64.6993 331.965 64.158C331.965 63.458 331.732 62.954 331.265 62.646C330.798 62.338 330.094 62.184 329.151 62.184H328.829V61.12H329.165C330.024 61.1107 330.672 60.9707 331.111 60.7C331.55 60.42 331.769 59.9907 331.769 59.412C331.769 58.9173 331.606 58.5207 331.279 58.222C330.962 57.9233 330.504 57.774 329.907 57.774C329.328 57.774 328.862 57.9233 328.507 58.222C328.152 58.5207 327.942 58.922 327.877 59.426H326.631Z" fill="#FAFAFA"/>
<path d="M140.032 133.04V131.878H142.664V142H141.376V133.04H140.032ZM144.516 133.04V131.878H147.148V142H145.86V133.04H144.516ZM149.337 136.834C149.337 135.229 149.598 133.978 150.121 133.082C150.643 132.177 151.558 131.724 152.865 131.724C154.162 131.724 155.072 132.177 155.595 133.082C156.117 133.978 156.379 135.229 156.379 136.834C156.379 138.467 156.117 139.737 155.595 140.642C155.072 141.547 154.162 142 152.865 142C151.558 142 150.643 141.547 150.121 140.642C149.598 139.737 149.337 138.467 149.337 136.834ZM155.119 136.834C155.119 136.022 155.063 135.336 154.951 134.776C154.848 134.207 154.629 133.749 154.293 133.404C153.966 133.059 153.49 132.886 152.865 132.886C152.23 132.886 151.745 133.059 151.409 133.404C151.082 133.749 150.863 134.207 150.751 134.776C150.648 135.336 150.597 136.022 150.597 136.834C150.597 137.674 150.648 138.379 150.751 138.948C150.863 139.517 151.082 139.975 151.409 140.32C151.745 140.665 152.23 140.838 152.865 140.838C153.49 140.838 153.966 140.665 154.293 140.32C154.629 139.975 154.848 139.517 154.951 138.948C155.063 138.379 155.119 137.674 155.119 136.834ZM157.792 133.04V131.878H160.424V142H159.136V133.04H157.792ZM162.612 136.834C162.612 135.229 162.873 133.978 163.396 133.082C163.919 132.177 164.833 131.724 166.14 131.724C167.437 131.724 168.347 132.177 168.87 133.082C169.393 133.978 169.654 135.229 169.654 136.834C169.654 138.467 169.393 139.737 168.87 140.642C168.347 141.547 167.437 142 166.14 142C164.833 142 163.919 141.547 163.396 140.642C162.873 139.737 162.612 138.467 162.612 136.834ZM168.394 136.834C168.394 136.022 168.338 135.336 168.226 134.776C168.123 134.207 167.904 133.749 167.568 133.404C167.241 133.059 166.765 132.886 166.14 132.886C165.505 132.886 165.02 133.059 164.684 133.404C164.357 133.749 164.138 134.207 164.026 134.776C163.923 135.336 163.872 136.022 163.872 136.834C163.872 137.674 163.923 138.379 164.026 138.948C164.138 139.517 164.357 139.975 164.684 140.32C165.02 140.665 165.505 140.838 166.14 140.838C166.765 140.838 167.241 140.665 167.568 140.32C167.904 139.975 168.123 139.517 168.226 138.948C168.338 138.379 168.394 137.674 168.394 136.834ZM171.067 133.04V131.878H173.699V142H172.411V133.04H171.067ZM187.446 134.832V135.91H180.166V134.832H187.446ZM187.446 137.842V138.92H180.166V137.842H187.446ZM199.924 132.984H195.01V136.176C195.224 135.877 195.542 135.635 195.962 135.448C196.382 135.252 196.834 135.154 197.32 135.154C198.094 135.154 198.724 135.317 199.21 135.644C199.695 135.961 200.04 136.377 200.246 136.89C200.46 137.394 200.568 137.931 200.568 138.5C200.568 139.172 200.442 139.774 200.19 140.306C199.938 140.838 199.55 141.258 199.028 141.566C198.514 141.874 197.875 142.028 197.11 142.028C196.13 142.028 195.336 141.776 194.73 141.272C194.123 140.768 193.754 140.096 193.624 139.256H194.87C194.991 139.788 195.248 140.203 195.64 140.502C196.032 140.801 196.526 140.95 197.124 140.95C197.861 140.95 198.416 140.731 198.79 140.292C199.163 139.844 199.35 139.256 199.35 138.528C199.35 137.8 199.163 137.24 198.79 136.848C198.416 136.447 197.866 136.246 197.138 136.246C196.643 136.246 196.209 136.367 195.836 136.61C195.472 136.843 195.206 137.165 195.038 137.576H193.834V131.864H199.924V132.984ZM202.233 134.426C202.298 133.567 202.629 132.895 203.227 132.41C203.824 131.925 204.599 131.682 205.551 131.682C206.185 131.682 206.731 131.799 207.189 132.032C207.655 132.256 208.005 132.564 208.239 132.956C208.481 133.348 208.603 133.791 208.603 134.286C208.603 134.865 208.435 135.364 208.099 135.784C207.772 136.204 207.343 136.475 206.811 136.596V136.666C207.417 136.815 207.898 137.109 208.253 137.548C208.607 137.987 208.785 138.561 208.785 139.27C208.785 139.802 208.663 140.283 208.421 140.712C208.178 141.132 207.814 141.463 207.329 141.706C206.843 141.949 206.26 142.07 205.579 142.07C204.589 142.07 203.777 141.813 203.143 141.3C202.508 140.777 202.153 140.04 202.079 139.088H203.311C203.376 139.648 203.605 140.105 203.997 140.46C204.389 140.815 204.911 140.992 205.565 140.992C206.218 140.992 206.713 140.824 207.049 140.488C207.394 140.143 207.567 139.699 207.567 139.158C207.567 138.458 207.333 137.954 206.867 137.646C206.4 137.338 205.695 137.184 204.753 137.184H204.431V136.12H204.767C205.625 136.111 206.274 135.971 206.713 135.7C207.151 135.42 207.371 134.991 207.371 134.412C207.371 133.917 207.207 133.521 206.881 133.222C206.563 132.923 206.106 132.774 205.509 132.774C204.93 132.774 204.463 132.923 204.109 133.222C203.754 133.521 203.544 133.922 203.479 134.426H202.233Z" fill="#FAFAFA"/>
<path d="M149.584 102.242V103.278H146.924V112H145.65V103.278H142.976V102.242H149.584ZM154.96 104.188C155.539 104.188 156.062 104.314 156.528 104.566C156.995 104.809 157.359 105.177 157.62 105.672C157.891 106.167 158.026 106.769 158.026 107.478V112H156.766V107.66C156.766 106.895 156.575 106.311 156.192 105.91C155.81 105.499 155.287 105.294 154.624 105.294C153.952 105.294 153.416 105.504 153.014 105.924C152.622 106.344 152.426 106.955 152.426 107.758V112H151.152V101.64H152.426V105.42C152.678 105.028 153.024 104.725 153.462 104.51C153.91 104.295 154.41 104.188 154.96 104.188ZM167.107 107.87C167.107 108.113 167.093 108.369 167.065 108.64H160.933C160.98 109.396 161.237 109.989 161.703 110.418C162.179 110.838 162.753 111.048 163.425 111.048C163.976 111.048 164.433 110.922 164.797 110.67C165.171 110.409 165.432 110.063 165.581 109.634H166.953C166.748 110.371 166.337 110.973 165.721 111.44C165.105 111.897 164.34 112.126 163.425 112.126C162.697 112.126 162.044 111.963 161.465 111.636C160.896 111.309 160.448 110.847 160.121 110.25C159.795 109.643 159.631 108.943 159.631 108.15C159.631 107.357 159.79 106.661 160.107 106.064C160.425 105.467 160.868 105.009 161.437 104.692C162.016 104.365 162.679 104.202 163.425 104.202C164.153 104.202 164.797 104.361 165.357 104.678C165.917 104.995 166.347 105.434 166.645 105.994C166.953 106.545 167.107 107.17 167.107 107.87ZM165.791 107.604C165.791 107.119 165.684 106.703 165.469 106.358C165.255 106.003 164.961 105.737 164.587 105.56C164.223 105.373 163.817 105.28 163.369 105.28C162.725 105.28 162.175 105.485 161.717 105.896C161.269 106.307 161.013 106.876 160.947 107.604H165.791ZM170.063 105.574C170.287 105.135 170.604 104.795 171.015 104.552C171.435 104.309 171.944 104.188 172.541 104.188V105.504H172.205C170.777 105.504 170.063 106.279 170.063 107.828V112H168.789V104.328H170.063V105.574ZM181.012 107.87C181.012 108.113 180.998 108.369 180.97 108.64H174.838C174.884 109.396 175.141 109.989 175.608 110.418C176.084 110.838 176.658 111.048 177.33 111.048C177.88 111.048 178.338 110.922 178.702 110.67C179.075 110.409 179.336 110.063 179.486 109.634H180.858C180.652 110.371 180.242 110.973 179.626 111.44C179.01 111.897 178.244 112.126 177.33 112.126C176.602 112.126 175.948 111.963 175.37 111.636C174.8 111.309 174.352 110.847 174.026 110.25C173.699 109.643 173.536 108.943 173.536 108.15C173.536 107.357 173.694 106.661 174.012 106.064C174.329 105.467 174.772 105.009 175.342 104.692C175.92 104.365 176.583 104.202 177.33 104.202C178.058 104.202 178.702 104.361 179.262 104.678C179.822 104.995 180.251 105.434 180.55 105.994C180.858 106.545 181.012 107.17 181.012 107.87ZM179.696 107.604C179.696 107.119 179.588 106.703 179.374 106.358C179.159 106.003 178.865 105.737 178.492 105.56C178.128 105.373 177.722 105.28 177.274 105.28C176.63 105.28 176.079 105.485 175.622 105.896C175.174 106.307 174.917 106.876 174.852 107.604H179.696ZM185.815 105.378H184.205V112H182.931V105.378H181.937V104.328H182.931V103.782C182.931 102.923 183.151 102.298 183.589 101.906C184.037 101.505 184.751 101.304 185.731 101.304V102.368C185.171 102.368 184.775 102.48 184.541 102.704C184.317 102.919 184.205 103.278 184.205 103.782V104.328H185.815V105.378ZM190.647 112.126C189.928 112.126 189.275 111.963 188.687 111.636C188.108 111.309 187.651 110.847 187.315 110.25C186.988 109.643 186.825 108.943 186.825 108.15C186.825 107.366 186.993 106.675 187.329 106.078C187.674 105.471 188.141 105.009 188.729 104.692C189.317 104.365 189.975 104.202 190.703 104.202C191.431 104.202 192.089 104.365 192.677 104.692C193.265 105.009 193.727 105.467 194.063 106.064C194.408 106.661 194.581 107.357 194.581 108.15C194.581 108.943 194.403 109.643 194.049 110.25C193.703 110.847 193.232 111.309 192.635 111.636C192.037 111.963 191.375 112.126 190.647 112.126ZM190.647 111.006C191.104 111.006 191.533 110.899 191.935 110.684C192.336 110.469 192.658 110.147 192.901 109.718C193.153 109.289 193.279 108.766 193.279 108.15C193.279 107.534 193.157 107.011 192.915 106.582C192.672 106.153 192.355 105.835 191.963 105.63C191.571 105.415 191.146 105.308 190.689 105.308C190.222 105.308 189.793 105.415 189.401 105.63C189.018 105.835 188.71 106.153 188.477 106.582C188.243 107.011 188.127 107.534 188.127 108.15C188.127 108.775 188.239 109.303 188.463 109.732C188.696 110.161 189.004 110.483 189.387 110.698C189.769 110.903 190.189 111.006 190.647 111.006ZM197.53 105.574C197.754 105.135 198.071 104.795 198.482 104.552C198.902 104.309 199.41 104.188 200.008 104.188V105.504H199.672C198.244 105.504 197.53 106.279 197.53 107.828V112H196.256V104.328H197.53V105.574ZM208.478 107.87C208.478 108.113 208.464 108.369 208.436 108.64H202.304C202.351 109.396 202.608 109.989 203.074 110.418C203.55 110.838 204.124 111.048 204.796 111.048C205.347 111.048 205.804 110.922 206.168 110.67C206.542 110.409 206.803 110.063 206.952 109.634H208.324C208.119 110.371 207.708 110.973 207.092 111.44C206.476 111.897 205.711 112.126 204.796 112.126C204.068 112.126 203.415 111.963 202.836 111.636C202.267 111.309 201.819 110.847 201.492 110.25C201.166 109.643 201.002 108.943 201.002 108.15C201.002 107.357 201.161 106.661 201.478 106.064C201.796 105.467 202.239 105.009 202.808 104.692C203.387 104.365 204.05 104.202 204.796 104.202C205.524 104.202 206.168 104.361 206.728 104.678C207.288 104.995 207.718 105.434 208.016 105.994C208.324 106.545 208.478 107.17 208.478 107.87ZM207.162 107.604C207.162 107.119 207.055 106.703 206.84 106.358C206.626 106.003 206.332 105.737 205.958 105.56C205.594 105.373 205.188 105.28 204.74 105.28C204.096 105.28 203.546 105.485 203.088 105.896C202.64 106.307 202.384 106.876 202.318 107.604H207.162ZM211.476 110.236L209.908 114.002H209.054L210.076 110.236H211.476Z" fill="#FAFAFA"/>
</svg>
