<svg width="352" height="142" viewBox="0 0 352 142" fill="none" xmlns="http://www.w3.org/2000/svg">
<rect width="352" height="142" rx="20" fill="#9BBBC6"/>
<path fill-rule="evenodd" clip-rule="evenodd" d="M170.608 38.9488C169.265 38.9488 168.076 39.6155 167.347 40.6391L134.945 20V42.4502H100.625C100.602 31.7568 93.128 22.9871 83.6063 22.0778V22H81.9699H63.3149V30.5431H28.6201V31.5431H63.3149V42.5V52.8103H28.623V53.8103H63.3149V63H81.9699H83.6063V62.9222C93.0039 62.0247 100.406 53.4705 100.62 42.967V43.4502H134.945V66L167.347 45.361C168.076 46.3846 169.265 47.0513 170.608 47.0513C172.824 47.0513 174.62 45.2375 174.62 43L225.695 43L226.12 60.0125L226.62 60V60.5431H261.315V71.5V81.8103H226.623V82.8103H261.315V92H279.97H281.606V91.9222C291.068 91.0186 298.508 82.3524 298.623 71.75H330.622V70.75H298.613C298.273 60.3762 290.919 51.9672 281.606 51.0778V51H279.97H261.315V59.5431H227.109L226.67 41.9931L226.395 42H174.62V43C174.62 40.7626 172.824 38.9488 170.608 38.9488ZM95.3473 97.1904C96.0755 96.189 97.2647 95.5368 98.6081 95.5368C100.652 95.5368 102.34 97.0472 102.588 99H225.62V82H226.62V99V100H102.588C102.34 101.953 100.652 103.463 98.6081 103.463C97.2647 103.463 96.0755 102.811 95.3473 101.81L62.9454 122V99.9404H28.6201V98.9404H62.9454V77L95.3473 97.1904ZM18.3801 22.54V24.2H20.3001V37H22.1401V22.54H18.3801ZM332.38 65.2V63.54H336.14V78H334.3V65.2H332.38ZM16.9801 49.26C16.2334 50.54 15.8601 52.3267 15.8601 54.62C15.8601 56.9533 16.2334 58.7667 16.9801 60.06C17.7268 61.3533 19.0334 62 20.9001 62C22.7534 62 24.0534 61.3533 24.8001 60.06C25.5468 58.7667 25.9201 56.9533 25.9201 54.62C25.9201 52.3267 25.5468 50.54 24.8001 49.26C24.0534 47.9667 22.7534 47.32 20.9001 47.32C19.0334 47.32 17.7268 47.9667 16.9801 49.26ZM23.8801 51.68C24.0401 52.48 24.1201 53.46 24.1201 54.62C24.1201 55.82 24.0401 56.8267 23.8801 57.64C23.7334 58.4533 23.4201 59.1067 22.9401 59.6C22.4734 60.0933 21.7934 60.34 20.9001 60.34C19.9934 60.34 19.3001 60.0933 18.8201 59.6C18.3534 59.1067 18.0401 58.4533 17.8801 57.64C17.7334 56.8267 17.6601 55.82 17.6601 54.62C17.6601 53.46 17.7334 52.48 17.8801 51.68C18.0401 50.8667 18.3534 50.2133 18.8201 49.72C19.3001 49.2267 19.9934 48.98 20.9001 48.98C21.7934 48.98 22.4734 49.2267 22.9401 49.72C23.4201 50.2133 23.7334 50.8667 23.8801 51.68ZM103.76 84.2V82.54H107.52V97H105.68V84.2H103.76ZM104.36 27.26C103.613 28.54 103.24 30.3267 103.24 32.62C103.24 34.9533 103.613 36.7667 104.36 38.06C105.107 39.3533 106.413 40 108.28 40C110.133 40 111.433 39.3533 112.18 38.06C112.927 36.7667 113.3 34.9533 113.3 32.62C113.3 30.3267 112.927 28.54 112.18 27.26C111.433 25.9667 110.133 25.32 108.28 25.32C106.413 25.32 105.107 25.9667 104.36 27.26ZM111.26 29.68C111.42 30.48 111.5 31.46 111.5 32.62C111.5 33.82 111.42 34.8267 111.26 35.64C111.113 36.4533 110.8 37.1067 110.32 37.6C109.853 38.0933 109.173 38.34 108.28 38.34C107.373 38.34 106.68 38.0933 106.2 37.6C105.733 37.1067 105.42 36.4533 105.26 35.64C105.113 34.8267 105.04 33.82 105.04 32.62C105.04 31.46 105.113 30.48 105.26 29.68C105.42 28.8667 105.733 28.2133 106.2 27.72C106.68 27.2267 107.373 26.98 108.28 26.98C109.173 26.98 109.853 27.2267 110.32 27.72C110.8 28.2133 111.113 28.8667 111.26 29.68ZM177.76 27.2V25.54H181.52V40H179.68V27.2H177.76ZM16.9801 94.26C16.2334 95.54 15.8601 97.3267 15.8601 99.62C15.8601 101.953 16.2334 103.767 16.9801 105.06C17.7268 106.353 19.0334 107 20.9001 107C22.7534 107 24.0534 106.353 24.8001 105.06C25.5468 103.767 25.9201 101.953 25.9201 99.62C25.9201 97.3267 25.5468 95.54 24.8001 94.26C24.0534 92.9667 22.7534 92.32 20.9001 92.32C19.0334 92.32 17.7268 92.9667 16.9801 94.26ZM23.8801 96.68C24.0401 97.48 24.1201 98.46 24.1201 99.62C24.1201 100.82 24.0401 101.827 23.8801 102.64C23.7334 103.453 23.4201 104.107 22.9401 104.6C22.4734 105.093 21.7934 105.34 20.9001 105.34C19.9934 105.34 19.3001 105.093 18.8201 104.6C18.3534 104.107 18.0401 103.453 17.8801 102.64C17.7334 101.827 17.6601 100.82 17.6601 99.62C17.6601 98.46 17.7334 97.48 17.8801 96.68C18.0401 95.8667 18.3534 95.2133 18.8201 94.72C19.3001 94.2267 19.9934 93.98 20.9001 93.98C21.7934 93.98 22.4734 94.2267 22.9401 94.72C23.4201 95.2133 23.7334 95.8667 23.8801 96.68Z" fill="white"/>
</svg>
