<svg width="500" height="500" viewBox="0 0 500 500" fill="none" xmlns="http://www.w3.org/2000/svg">
<rect width="500" height="500" fill="white"/>
<path d="M205.5 225C212.404 225 218 219.404 218 212.5C218 205.596 212.404 200 205.5 200C198.596 200 193 205.596 193 212.5C193 219.404 198.596 225 205.5 225Z" fill="#5C7781"/>
<path d="M208 305C208 307.761 205.761 310 203 310H113C110.239 310 108 307.761 108 305V215C108 212.239 110.239 210 113 210H178C180.761 210 183 212.239 183 215V230C183 232.761 185.239 235 188 235H203C205.761 235 208 237.239 208 240V305Z" fill="#9BBBC6"/>
<path d="M268.76 244.088C271.277 244.557 273.347 245.816 274.968 247.864C276.589 249.912 277.4 252.259 277.4 254.904C277.4 257.293 276.803 259.405 275.608 261.24C274.456 263.032 272.771 264.44 270.552 265.464C268.333 266.488 265.709 267 262.68 267H243.416V222.328H261.848C264.877 222.328 267.48 222.819 269.656 223.8C271.875 224.781 273.539 226.147 274.648 227.896C275.8 229.645 276.376 231.629 276.376 233.848C276.376 236.451 275.672 238.627 274.264 240.376C272.899 242.125 271.064 243.363 268.76 244.088ZM252.376 240.76H260.568C262.701 240.76 264.344 240.291 265.496 239.352C266.648 238.371 267.224 236.984 267.224 235.192C267.224 233.4 266.648 232.013 265.496 231.032C264.344 230.051 262.701 229.56 260.568 229.56H252.376V240.76ZM261.4 259.704C263.576 259.704 265.261 259.192 266.456 258.168C267.693 257.144 268.312 255.693 268.312 253.816C268.312 251.896 267.672 250.403 266.392 249.336C265.112 248.227 263.384 247.672 261.208 247.672H252.376V259.704H261.4ZM318.461 231.544L296.509 283.768H286.973L294.653 266.104L280.445 231.544H290.493L299.645 256.312L308.925 231.544H318.461ZM333.723 238.904V256.056C333.723 257.251 334 258.125 334.555 258.68C335.152 259.192 336.134 259.448 337.499 259.448H341.659V267H336.027C328.475 267 324.699 263.331 324.699 255.992V238.904H320.475V231.544H324.699V222.776H333.723V231.544H341.659V238.904H333.723ZM381.064 248.504C381.064 249.784 380.978 250.936 380.808 251.96H354.888C355.101 254.52 355.997 256.525 357.576 257.976C359.154 259.427 361.096 260.152 363.4 260.152C366.728 260.152 369.096 258.723 370.504 255.864H380.168C379.144 259.277 377.181 262.093 374.28 264.312C371.378 266.488 367.816 267.576 363.592 267.576C360.178 267.576 357.106 266.829 354.376 265.336C351.688 263.8 349.576 261.645 348.04 258.872C346.546 256.099 345.799 252.899 345.799 249.272C345.799 245.603 346.546 242.381 348.04 239.608C349.533 236.835 351.624 234.701 354.312 233.208C357 231.715 360.093 230.968 363.592 230.968C366.962 230.968 369.97 231.693 372.616 233.144C375.304 234.595 377.373 236.664 378.824 239.352C380.317 241.997 381.064 245.048 381.064 248.504ZM371.784 245.944C371.741 243.64 370.909 241.805 369.288 240.44C367.666 239.032 365.682 238.328 363.336 238.328C361.117 238.328 359.24 239.011 357.704 240.376C356.21 241.699 355.293 243.555 354.952 245.944H371.784Z" fill="#9BBBC6"/>
<path d="M246.44 303.168C245.272 303.168 244.216 302.968 243.272 302.568C242.344 302.168 241.608 301.592 241.064 300.84C240.52 300.088 240.24 299.2 240.224 298.176H243.824C243.872 298.864 244.112 299.408 244.544 299.808C244.992 300.208 245.6 300.408 246.368 300.408C247.152 300.408 247.768 300.224 248.216 299.856C248.664 299.472 248.888 298.976 248.888 298.368C248.888 297.872 248.736 297.464 248.432 297.144C248.128 296.824 247.744 296.576 247.28 296.4C246.832 296.208 246.208 296 245.408 295.776C244.32 295.456 243.432 295.144 242.744 294.84C242.072 294.52 241.488 294.048 240.992 293.424C240.512 292.784 240.272 291.936 240.272 290.88C240.272 289.888 240.52 289.024 241.016 288.288C241.512 287.552 242.208 286.992 243.104 286.608C244 286.208 245.024 286.008 246.176 286.008C247.904 286.008 249.304 286.432 250.376 287.28C251.464 288.112 252.064 289.28 252.176 290.784H248.48C248.448 290.208 248.2 289.736 247.736 289.368C247.288 288.984 246.688 288.792 245.936 288.792C245.28 288.792 244.752 288.96 244.352 289.296C243.968 289.632 243.776 290.12 243.776 290.76C243.776 291.208 243.92 291.584 244.208 291.888C244.512 292.176 244.88 292.416 245.312 292.608C245.76 292.784 246.384 292.992 247.184 293.232C248.272 293.552 249.16 293.872 249.848 294.192C250.536 294.512 251.128 294.992 251.624 295.632C252.12 296.272 252.368 297.112 252.368 298.152C252.368 299.048 252.136 299.88 251.672 300.648C251.208 301.416 250.528 302.032 249.632 302.496C248.736 302.944 247.672 303.168 246.44 303.168ZM256.985 288.12C256.393 288.12 255.897 287.936 255.497 287.568C255.113 287.184 254.921 286.712 254.921 286.152C254.921 285.592 255.113 285.128 255.497 284.76C255.897 284.376 256.393 284.184 256.985 284.184C257.577 284.184 258.065 284.376 258.449 284.76C258.849 285.128 259.049 285.592 259.049 286.152C259.049 286.712 258.849 287.184 258.449 287.568C258.065 287.936 257.577 288.12 256.985 288.12ZM258.641 289.704V303H255.281V289.704H258.641ZM265.033 300.24H270.961V303H261.217V300.288L267.025 292.464H261.241V289.704H270.889V292.416L265.033 300.24ZM285.922 296.064C285.922 296.544 285.89 296.976 285.826 297.36H276.106C276.186 298.32 276.522 299.072 277.114 299.616C277.706 300.16 278.434 300.432 279.298 300.432C280.546 300.432 281.434 299.896 281.962 298.824H285.586C285.202 300.104 284.466 301.16 283.378 301.992C282.29 302.808 280.954 303.216 279.37 303.216C278.09 303.216 276.938 302.936 275.914 302.376C274.906 301.8 274.114 300.992 273.538 299.952C272.978 298.912 272.698 297.712 272.698 296.352C272.698 294.976 272.978 293.768 273.538 292.728C274.098 291.688 274.882 290.888 275.89 290.328C276.898 289.768 278.058 289.488 279.37 289.488C280.634 289.488 281.762 289.76 282.754 290.304C283.762 290.848 284.538 291.624 285.082 292.632C285.642 293.624 285.922 294.768 285.922 296.064ZM282.442 295.104C282.426 294.24 282.114 293.552 281.506 293.04C280.898 292.512 280.154 292.248 279.274 292.248C278.442 292.248 277.738 292.504 277.162 293.016C276.602 293.512 276.258 294.208 276.13 295.104H282.442ZM287.511 296.304C287.511 294.96 287.775 293.768 288.303 292.728C288.847 291.688 289.583 290.888 290.511 290.328C291.439 289.768 292.471 289.488 293.607 289.488C294.471 289.488 295.295 289.68 296.079 290.064C296.863 290.432 297.487 290.928 297.951 291.552V285.24H301.359V303H297.951V301.032C297.535 301.688 296.951 302.216 296.199 302.616C295.447 303.016 294.575 303.216 293.583 303.216C292.463 303.216 291.439 302.928 290.511 302.352C289.583 301.776 288.847 300.968 288.303 299.928C287.775 298.872 287.511 297.664 287.511 296.304ZM297.975 296.352C297.975 295.536 297.815 294.84 297.495 294.264C297.175 293.672 296.743 293.224 296.199 292.92C295.655 292.6 295.071 292.44 294.447 292.44C293.823 292.44 293.247 292.592 292.719 292.896C292.191 293.2 291.759 293.648 291.423 294.24C291.103 294.816 290.943 295.504 290.943 296.304C290.943 297.104 291.103 297.808 291.423 298.416C291.759 299.008 292.191 299.464 292.719 299.784C293.263 300.104 293.839 300.264 294.447 300.264C295.071 300.264 295.655 300.112 296.199 299.808C296.743 299.488 297.175 299.04 297.495 298.464C297.815 297.872 297.975 297.168 297.975 296.352Z" fill="#5C7781"/>
</svg>
