<svg width="352" height="142" viewBox="0 0 352 142" fill="none" xmlns="http://www.w3.org/2000/svg">
<rect width="352" height="142" rx="20" fill="#9BBBC6"/>
<path fill-rule="evenodd" clip-rule="evenodd" d="M68.3743 43.6075C69.5443 37.8906 69.0646 32.153 66.8804 26.6237H44.73V25.6237H66.4658C64.7824 21.748 62.252 17.9825 58.8555 14.4071C58.0275 13.5356 59.2766 11.5789 60.3688 12.0812L110.327 35.0586C110.697 35.2286 110.892 35.5709 110.908 35.9212L217.739 36.8343L217.73 37.8342V50.4256H241.013C240.003 47.2445 238.824 44.6338 237.721 42.8465L238.572 42.3213C240.977 46.2184 243.654 53.7226 244.399 62.4845C245.145 71.2545 243.96 81.3386 238.576 90.3637L237.717 89.8514C239.698 86.5299 241.099 83.0568 242.035 79.5557H217.73V100.834V101.834H216.73H184.698C184.449 103.787 182.762 105.297 180.718 105.297C179.375 105.297 178.185 104.645 177.457 103.644L145.055 123.834V101.775H114.618C114.563 102.014 114.421 102.237 114.187 102.389L69.1022 131.676C68.0957 132.33 66.6372 130.635 67.3509 129.67C79.7164 112.952 80.1201 93.7763 67.3684 78.0854C66.6161 77.1597 67.9603 75.3719 69.0063 75.9453L114.123 100.674C114.178 100.704 114.228 100.737 114.274 100.775H145.055V78.8342L177.457 99.0246C178.185 98.0233 179.375 97.3711 180.718 97.3711C182.762 97.3711 184.449 98.8815 184.698 100.834H216.73V78.8342H217.73V78.5557H242.289C243.608 73.1117 243.833 67.6286 243.403 62.5692C243.055 58.4847 242.282 54.6884 241.319 51.4256H217.73V50.8342H216.73V37.8342H217.73L110.259 36.9157L78.0943 54.4486L60.3758 64.107C59.3166 64.6844 57.9613 62.8261 58.7531 61.916C63.5955 56.3499 66.7488 50.4968 68.1528 44.6075H44.73V43.6075H68.3743ZM60.7208 81.8465C61.824 83.6338 63.0026 86.2445 64.0127 89.4256H40.73V90.4256H64.3189C65.282 93.6883 66.0554 97.4847 66.4027 101.569C66.8329 106.629 66.6077 112.112 65.2895 117.556H40.73V118.556H65.0348C64.0987 122.057 62.6984 125.53 60.7169 128.851L61.5757 129.364C66.9597 120.339 68.1448 110.255 67.3991 101.484C66.6541 92.7226 63.9772 85.2184 61.5718 81.3213L60.7208 81.8465ZM244.351 90.6701C256.716 73.9522 257.12 54.7763 244.368 39.0855C243.616 38.1597 244.96 36.3719 246.006 36.9453L291.123 61.6736C291.395 61.8224 291.561 62.0679 291.619 62.3342H310.74V63.3342H291.264C291.239 63.3534 291.214 63.3717 291.187 63.3891L246.102 92.676C245.096 93.3298 243.637 91.635 244.351 90.6701ZM32.49 17.3742V19.0342H34.41V31.8342H36.25V17.3742H32.49ZM111.49 20.0342V18.3742H115.25V32.8342H113.41V20.0342H111.49ZM191.49 84.3742V86.0342H193.41V98.8342H195.25V84.3742H191.49ZM29.97 44.4542C29.97 42.1609 30.3433 40.3742 31.09 39.0942C31.8366 37.8009 33.1433 37.1542 35.01 37.1542C36.8633 37.1542 38.1633 37.8009 38.91 39.0942C39.6566 40.3742 40.03 42.1609 40.03 44.4542C40.03 46.7876 39.6566 48.6009 38.91 49.8942C38.1633 51.1876 36.8633 51.8342 35.01 51.8342C33.1433 51.8342 31.8366 51.1876 31.09 49.8942C30.3433 48.6009 29.97 46.7876 29.97 44.4542ZM38.23 44.4542C38.23 43.2942 38.15 42.3142 37.99 41.5142C37.8433 40.7009 37.53 40.0476 37.05 39.5542C36.5833 39.0609 35.9033 38.8142 35.01 38.8142C34.1033 38.8142 33.41 39.0609 32.93 39.5542C32.4633 40.0476 32.15 40.7009 31.99 41.5142C31.8433 42.3142 31.77 43.2942 31.77 44.4542C31.77 45.6542 31.8433 46.6609 31.99 47.4742C32.15 48.2876 32.4633 48.9409 32.93 49.4342C33.41 49.9276 34.1033 50.1742 35.01 50.1742C35.9033 50.1742 36.5833 49.9276 37.05 49.4342C37.53 48.9409 37.8433 48.2876 37.99 47.4742C38.15 46.6609 38.23 45.6542 38.23 44.4542ZM117.09 86.0942C116.343 87.3742 115.97 89.1609 115.97 91.4542C115.97 93.7876 116.343 95.6009 117.09 96.8942C117.837 98.1876 119.143 98.8342 121.01 98.8342C122.863 98.8342 124.163 98.1876 124.91 96.8942C125.657 95.6009 126.03 93.7876 126.03 91.4542C126.03 89.1609 125.657 87.3742 124.91 86.0942C124.163 84.8009 122.863 84.1542 121.01 84.1542C119.143 84.1542 117.837 84.8009 117.09 86.0942ZM123.99 88.5142C124.15 89.3142 124.23 90.2942 124.23 91.4542C124.23 92.6542 124.15 93.6609 123.99 94.4742C123.843 95.2876 123.53 95.9409 123.05 96.4342C122.583 96.9276 121.903 97.1742 121.01 97.1742C120.103 97.1742 119.41 96.9276 118.93 96.4342C118.463 95.9409 118.15 95.2876 117.99 94.4742C117.843 93.6609 117.77 92.6542 117.77 91.4542C117.77 90.2942 117.843 89.3142 117.99 88.5142C118.15 87.7009 118.463 87.0476 118.93 86.5542C119.41 86.0609 120.103 85.8142 121.01 85.8142C121.903 85.8142 122.583 86.0609 123.05 86.5542C123.53 87.0476 123.843 87.7009 123.99 88.5142ZM311.97 63.4542C311.97 61.1609 312.343 59.3742 313.09 58.0942C313.837 56.8009 315.143 56.1542 317.01 56.1542C318.863 56.1542 320.163 56.8009 320.91 58.0942C321.657 59.3742 322.03 61.1609 322.03 63.4542C322.03 65.7876 321.657 67.6009 320.91 68.8942C320.163 70.1876 318.863 70.8342 317.01 70.8342C315.143 70.8342 313.837 70.1876 313.09 68.8942C312.343 67.6009 311.97 65.7876 311.97 63.4542ZM320.23 63.4542C320.23 62.2942 320.15 61.3142 319.99 60.5142C319.843 59.7009 319.53 59.0476 319.05 58.5542C318.583 58.0609 317.903 57.8142 317.01 57.8142C316.103 57.8142 315.41 58.0609 314.93 58.5542C314.463 59.0476 314.15 59.7009 313.99 60.5142C313.843 61.3142 313.77 62.2942 313.77 63.4542C313.77 64.6542 313.843 65.6609 313.99 66.4742C314.15 67.2876 314.463 67.9409 314.93 68.4342C315.41 68.9276 316.103 69.1742 317.01 69.1742C317.903 69.1742 318.583 68.9276 319.05 68.4342C319.53 67.9409 319.843 67.2876 319.99 66.4742C320.15 65.6609 320.23 64.6542 320.23 63.4542ZM31.09 83.0942C30.3433 84.3742 29.97 86.1609 29.97 88.4542C29.97 90.7876 30.3433 92.6009 31.09 93.8942C31.8366 95.1876 33.1433 95.8342 35.01 95.8342C36.8633 95.8342 38.1633 95.1876 38.91 93.8942C39.6566 92.6009 40.03 90.7876 40.03 88.4542C40.03 86.1609 39.6566 84.3742 38.91 83.0942C38.1633 81.8009 36.8633 81.1542 35.01 81.1542C33.1433 81.1542 31.8366 81.8009 31.09 83.0942ZM37.99 85.5142C38.15 86.3142 38.23 87.2942 38.23 88.4542C38.23 89.6542 38.15 90.6609 37.99 91.4742C37.8433 92.2876 37.53 92.9409 37.05 93.4342C36.5833 93.9276 35.9033 94.1742 35.01 94.1742C34.1033 94.1742 33.41 93.9276 32.93 93.4342C32.4633 92.9409 32.15 92.2876 31.99 91.4742C31.8433 90.6609 31.77 89.6542 31.77 88.4542C31.77 87.2942 31.8433 86.3142 31.99 85.5142C32.15 84.7009 32.4633 84.0476 32.93 83.5542C33.41 83.0609 34.1033 82.8142 35.01 82.8142C35.9033 82.8142 36.5833 83.0609 37.05 83.5542C37.53 84.0476 37.8433 84.7009 37.99 85.5142ZM29.97 116.454C29.97 114.161 30.3433 112.374 31.09 111.094C31.8366 109.801 33.1433 109.154 35.01 109.154C36.8633 109.154 38.1633 109.801 38.91 111.094C39.6566 112.374 40.03 114.161 40.03 116.454C40.03 118.788 39.6566 120.601 38.91 121.894C38.1633 123.188 36.8633 123.834 35.01 123.834C33.1433 123.834 31.8366 123.188 31.09 121.894C30.3433 120.601 29.97 118.788 29.97 116.454ZM38.23 116.454C38.23 115.294 38.15 114.314 37.99 113.514C37.8433 112.701 37.53 112.048 37.05 111.554C36.5833 111.061 35.9033 110.814 35.01 110.814C34.1033 110.814 33.41 111.061 32.93 111.554C32.4633 112.048 32.15 112.701 31.99 113.514C31.8433 114.314 31.77 115.294 31.77 116.454C31.77 117.654 31.8433 118.661 31.99 119.474C32.15 120.288 32.4633 120.941 32.93 121.434C33.41 121.928 34.1033 122.174 35.01 122.174C35.9033 122.174 36.5833 121.928 37.05 121.434C37.53 120.941 37.8433 120.288 37.99 119.474C38.15 118.661 38.23 117.654 38.23 116.454Z" fill="white"/>
</svg>
